<?xml version="1.0" encoding="UTF-8"?>
<svg width="51px" height="18px" viewBox="0 0 51 18" version="1.1" xmlns="http://www.w3.org/2000/svg" xmlns:xlink="http://www.w3.org/1999/xlink">
    <!-- Generator: Sketch 48.2 (47327) - http://www.bohemiancoding.com/sketch -->
    <title>QIWIWallet</title>
    <desc>Created with Sketch.</desc>
    <defs></defs>
    <g id="bookmaker" stroke="none" stroke-width="1" fill="none" fill-rule="evenodd" transform="translate(-1171.000000, -728.000000)">
        <rect id="Rectangle-24" stroke-opacity="0.06" stroke="#000000" x="984.5" y="702.5" width="255" height="201"></rect>
        <g id="QIWIWallet" transform="translate(1171.000000, 728.000000)">
            <path d="M38.0752056,12.1776316 L38.9341951,12.1776316 L38.5346651,10.9934211 L38.0752056,12.1776316 Z M20.3160987,10.7565789 C19.1774383,11.1118421 19.4970623,13.4407895 20.8155112,13.0263158 C21.8542891,12.7105263 21.5945946,10.3618421 20.3160987,10.7565789 Z M29.6051704,10.6381579 L29.6251469,13.5197368 L30.2444183,13.5 L30.2444183,10.3026316 L29.6051704,10.2434211 L29.6051704,10.6381579 Z M22.9529965,13.5197368 L23.5522914,13.5 C23.5922444,12.8684211 23.5722679,12.1578947 23.5722679,11.5263158 C23.5722679,10.0855263 23.7121034,10.2039474 22.93302,10.2631579 L22.9529965,13.5197368 Z M45.1269095,13.3815789 L45.0470035,12.9671053 L43.9482961,12.9473684 L43.9482961,10.3026316 C43.7085781,10.2236842 43.5687427,10.2236842 43.3090482,10.2828947 L43.3090482,13.5 L44.7273796,13.5197368 C44.987074,13.5197368 45.0869565,13.5789474 45.1269095,13.3815789 Z M42.5898942,13.2828947 L42.5099882,12.9868421 L42.3301998,12.9671053 L41.4112808,12.9671053 L41.4112808,10.2828947 L40.7720329,10.2434211 L40.7720329,13.5 L42.5699177,13.5197368 L42.5898942,13.2828947 Z M49.3019976,10.7960526 C49.4618096,11.3289474 49.2620447,12.8092105 49.3619271,13.5 L49.9811986,13.5 L49.9811986,10.7960526 L51,10.7960526 L50.9400705,10.2631579 L48.3631022,10.2631579 L48.3631022,10.7763158 L49.3019976,10.7960526 Z M46.4853114,10.7763158 L47.7438308,10.7763158 L47.7438308,10.2434211 C47.3243243,10.2434211 46.1656874,10.1842105 45.826087,10.3026316 L45.8460635,13.5197368 L47.8037603,13.5 L47.8037603,12.9868421 L46.4653349,12.9868421 L46.4653349,12.0986842 L47.5440658,12.0789474 L47.4441833,11.5460526 L46.4653349,11.5263158 L46.4853114,10.7763158 Z M36.9964747,13.5 L37.5558167,13.5197368 C37.7356052,13.2631579 37.7356052,12.9276316 37.9153937,12.7105263 L39.1139835,12.6907895 L39.453584,13.5394737 L40.052879,13.4605263 C40.0329025,13.2236842 38.9941246,10.4802632 38.8542891,10.2434211 L38.2150411,10.2236842 C38.1151586,10.4210526 36.9964747,13.3223684 36.9964747,13.5 Z M21.2749706,13.3421053 C21.6745006,13.0657895 21.8942421,12.9078947 22.0340776,12.3552632 C22.173913,11.8421053 22.0740306,11.3092105 21.8742656,10.9144737 C21.3948296,10.0855263 20.1363102,9.92763158 19.4571093,10.6184211 C18.8178613,11.25 18.8178613,12.5723684 19.4770858,13.1644737 C19.7767333,13.4407895 21.4347826,14.0723684 21.9341951,14.1710526 L22.0340776,13.6381579 C21.7943596,13.5789474 21.4347826,13.5 21.2749706,13.3421053 Z M27.2679201,13.5 L27.9271445,13.5 L28.86604,10.2631579 L28.2467685,10.2631579 L27.6474736,12.4736842 C27.4477086,12.1973684 27.0481786,10.6776316 26.9482961,10.2631579 L26.2491187,10.2828947 C26.2491187,10.5197368 25.7497062,12.1776316 25.6098707,12.4539474 C25.4700353,12.2368421 25.0705053,10.6184211 24.9905993,10.2236842 L24.3113984,10.3223684 L25.2502938,13.5197368 L25.8495887,13.5 L26.5687427,11.2302632 C26.6886016,11.4078947 27.2679201,13.2631579 27.2679201,13.5 Z M32.7015276,12 C32.8413631,12.1578947 32.9012926,12.5328947 32.9612221,12.75 C33.0211516,12.9473684 33.1210341,13.3421053 33.2009401,13.5 L33.7802585,13.5197368 L34.4994125,11.2302632 C34.6991774,11.4868421 35.0987074,13.0460526 35.2585194,13.5 L35.8578143,13.5197368 L36.8166863,10.2631579 L36.1774383,10.2631579 L35.5981199,12.4539474 L35.2185664,11.4078947 C35.1386604,11.1118421 34.9988249,10.5394737 34.8789659,10.2828947 C34.6991774,10.2434211 34.4594595,10.2039474 34.2996475,10.2828947 L34.1398355,10.4013158 C34.159812,10.6381579 33.680376,12.2171053 33.560517,12.4539474 C33.3008226,12.0986842 33.1609871,10.7565789 32.9012926,10.2236842 L32.2820212,10.3223684 C32.3619271,10.7960526 32.7215041,11.6644737 32.7015276,12 Z" id="Shape" fill="#04239B"></path>
            <path d="M14.4629847,12.4144737 C14.3031727,11.7039474 13.9835488,11.1907895 13.5240893,10.7763158 C13.3642773,10.6184211 13.1645123,10.5 12.9447709,10.3815789 C12.8448884,10.3223684 12.7649824,10.2828947 12.6051704,10.2236842 C12.3654524,10.1447368 12.0658049,10.0263158 11.666275,10.0657895 C11.86604,9.96710526 12.1656874,9.96710526 12.4653349,9.96710526 C12.7050529,10.0065789 12.9048179,10.0657895 13.1245593,10.125 C13.3043478,10.2236842 13.4841363,10.3223684 13.6439483,10.4210526 C14.0834313,9.15789474 13.9236193,7.40131579 13.4441833,6.29605263 C12.9647474,5.11184211 12.3055229,4.14473684 11.426557,3.39473684 C10.5475911,2.60526316 9.50881316,1.99342105 8.15041128,1.71710526 C7.47121034,1.57894737 6.61222092,1.59868421 5.99294947,1.73684211 C5.33372503,1.91447368 4.79435958,2.19078947 4.31492362,2.52631579 C3.87544066,2.92105263 3.4559342,3.31578947 3.15628672,3.84868421 C3.05640423,3.94736842 3.01645123,4.125 2.91656874,4.24342105 C2.85663925,4.38157895 2.79670975,4.51973684 2.73678026,4.65789474 C2.63689777,4.97368421 2.51703878,5.26973684 2.45710928,5.60526316 C2.2972973,6.25657895 2.2773208,7.125 2.37720329,7.79605263 C2.45710928,8.54605263 2.67685076,9.13815789 2.91656874,9.73026316 C3.05640423,9.98684211 3.17626322,10.2828947 3.33607521,10.5394737 C3.49588719,10.7960526 3.67567568,11.0131579 3.85546416,11.25 C4.23501763,11.6842105 4.67450059,12.0592105 5.15393655,12.3947368 C6.17273796,13.0460526 7.31139835,13.5394737 8.88954172,13.6184211 C8.90951821,13.5592105 8.84958872,13.4210526 8.82961222,13.3421053 C8.80963572,13.2434211 8.78965922,13.1447368 8.76968273,13.0460526 C8.74970623,12.8486842 8.74970623,12.5921053 8.76968273,12.3947368 C8.82961222,12.4144737 8.82961222,12.4934211 8.86956522,12.5328947 C8.90951821,12.5723684 8.90951821,12.6315789 8.96944771,12.6513158 C9.00940071,12.75 9.0893067,12.8289474 9.14923619,12.9078947 C9.28907168,13.0657895 9.40893067,13.2434211 9.58871915,13.3618421 C9.74853114,13.5197368 9.94829612,13.6184211 10.1280846,13.7368421 C10.3078731,13.8355263 10.4876616,13.9539474 10.7074031,14.0131579 C11.106933,14.2302632 11.626322,14.2894737 12.1457109,14.3684211 C12.6650999,14.4473684 13.1645123,14.5263158 13.6439483,14.6447368 C14.1034078,14.7828947 14.5428907,14.9407895 14.9024677,15.1578947 C15.1022327,15.2763158 15.2820212,15.375 15.4618096,15.5131579 C15.5417156,15.5723684 15.6415981,15.6315789 15.7015276,15.7105263 C15.8213866,15.75 15.8613396,15.8486842 15.9612221,15.8881579 C16.2608696,16.1644737 16.5804935,16.4605263 16.8202115,16.7960526 C16.9400705,16.9934211 17.079906,17.1315789 17.159812,17.3486842 C17.239718,17.4276316 17.2596945,17.5657895 17.319624,17.6447368 C17.319624,17.7631579 17.439483,17.8815789 17.3396005,17.9802632 C17.199765,18 17.2197415,17.8421053 17.159812,17.7828947 C17.119859,17.7039474 17.0599295,17.6447368 17.0199765,17.5460526 C16.800235,17.3092105 16.5804935,17.0526316 16.3407756,16.8355263 C16.0810811,16.6184211 15.8413631,16.4013158 15.5616921,16.2236842 C15.0023502,15.8486842 14.3631022,15.5526316 13.6239718,15.3552632 C12.9048179,15.1578947 12.0857814,15.0592105 11.146886,15.1184211 C10.7273796,15.1776316 10.3278496,15.2565789 9.98824912,15.375 C9.60869565,15.4736842 9.20916569,15.5131579 8.78965922,15.5723684 C7.19153937,15.6710526 5.39365452,15.2960526 4.19506463,14.7236842 C3.55581669,14.4276316 2.97649824,14.0921053 2.47708578,13.6578947 C2.19741481,13.4605263 1.97767333,13.2039474 1.75793184,12.9671053 C1.53819036,12.7302632 1.31844888,12.4934211 1.1586369,12.1776316 C0.958871915,11.9210526 0.819036428,11.5855263 0.659224442,11.2894737 C0.539365452,10.9539474 0.379553467,10.6381579 0.299647474,10.2631579 C0.179788484,9.90789474 0.0998824912,9.53289474 0.0599294947,9.09868421 C0.0599294947,8.98026316 0,8.76315789 0,8.58552632 C0,8.56578947 0.0199764982,8.54605263 0.0199764982,8.52631579 C0.0199764982,8.34868421 -0.0199764982,8.09210526 0.0199764982,7.95394737 C0.0199764982,7.57894737 0.0799059929,7.10526316 0.159811986,6.73026316 C0.239717979,6.35526316 0.33960047,6 0.459459459,5.64473684 C0.579318449,5.30921053 0.719153937,4.99342105 0.858989424,4.65789474 C0.958871915,4.51973684 1.03877791,4.36184211 1.1186839,4.22368421 C1.19858989,4.06578947 1.31844888,3.94736842 1.37837838,3.78947368 C1.45828437,3.75 1.45828437,3.65131579 1.53819036,3.59210526 C1.55816686,3.51315789 1.63807286,3.47368421 1.67802585,3.39473684 C1.73795535,3.33552632 1.77790834,3.25657895 1.81786134,3.19736842 C1.87779083,3.13815789 1.95769683,3.07894737 1.97767333,3 C2.2173913,2.76315789 2.43713278,2.52631579 2.67685076,2.30921053 C2.91656874,2.07236842 3.17626322,1.875 3.4359577,1.65789474 C3.59576968,1.57894737 3.71562867,1.46052632 3.87544066,1.38157895 C3.99529965,1.28289474 4.15511163,1.22368421 4.27497062,1.125 C4.61457109,0.967105263 4.89424207,0.789473684 5.23384254,0.671052632 C5.55346651,0.513157895 5.91304348,0.414473684 6.25264395,0.296052632 C7.01175088,0.118421053 7.77085781,-0.0197368421 8.70975323,0.0197368421 C8.74970623,0.0197368421 8.76968273,-0.0197368421 8.76968273,0.0197368421 C10.5475911,0.0592105263 11.8460635,0.592105263 12.9447709,1.30263158 C14.0434783,2.03289474 14.8824912,3 15.5017626,4.20394737 C16.0810811,5.38815789 16.4206816,7.00657895 16.1410106,8.70394737 C16.0011751,9.47368421 15.7814336,10.1644737 15.5017626,10.7763158 C15.3419506,11.0723684 15.2021152,11.3881579 15.0023502,11.6644737 C14.9224442,11.8026316 14.8425382,11.9407895 14.7226792,12.0592105 C14.7027027,12.1381579 14.6427732,12.1973684 14.6028202,12.2565789 C14.5628672,12.2960526 14.5428907,12.3157895 14.5229142,12.3552632 C14.5029377,12.375 14.5029377,12.3947368 14.4829612,12.3947368 C14.4829612,12.4342105 14.4629847,12.4342105 14.4629847,12.4144737 Z" id="Shape" fill="#FEB859" fill-rule="nonzero"></path>
            <path d="M13.9806926,12.9078947 C13.7625669,12.8289474 13.7229077,12.5526316 13.60393,12.3355263 C13.60393,12.2565789 13.5841004,12.1381579 13.60393,12.0592105 C13.6237596,12.0592105 13.6237596,12.0394737 13.6435892,12.0394737 C13.7030781,12 13.7625669,12.0592105 13.8418854,12.0789474 C13.960863,12.2171053 14.0203519,12.375 14.0798407,12.5723684 C14.0798407,12.7302632 14.0996703,12.8881579 13.9806926,12.9078947 Z" id="Shape" fill="#F28E18" fill-rule="nonzero"></path>
            <path d="M12.2655699,12.5921053 C12.2655699,12.5723684 12.2855464,12.5723684 12.2855464,12.5921053 C12.6251469,12.6315789 12.7849589,12.8684211 12.8049354,13.2236842 C12.7849589,13.4210526 12.6650999,13.5394737 12.4853114,13.5986842 C12.0058754,13.5986842 11.746181,13.1842105 11.9059929,12.75 C12.0058754,12.6710526 12.0658049,12.5723684 12.2655699,12.5921053 Z" id="Shape" fill="#F28E18" fill-rule="nonzero"></path>
            <g id="VISA.cdr" transform="translate(17.059929, 1.322368)">
                <polygon id="Shape" fill="#04239B" points="7.85076381 6.65131579 8.98942421 0.0986842105 10.8072855 0.0986842105 9.66862515 6.65131579"></polygon>
                <path d="M16.2408931,0.256578947 C15.8813161,0.138157895 15.3019976,0 14.6028202,0 C12.8249119,0 11.5663925,0.868421053 11.546416,2.15131579 C11.546416,3.09868421 12.4453584,3.61184211 13.1445358,3.92763158 C13.8437133,4.26315789 14.0834313,4.46052632 14.0634548,4.73684211 C14.0634548,5.19078947 13.5240893,5.38815789 12.9847239,5.38815789 C12.2655699,5.38815789 11.8860165,5.28947368 11.2867215,5.05263158 L11.0470035,4.93421053 L10.8072855,6.39473684 C11.226792,6.59210526 12.0058754,6.75 12.8249119,6.75 C14.7226792,6.75 15.9412456,5.88157895 15.9612221,4.51973684 C15.9811986,3.76973684 15.4817861,3.19736842 14.4430082,2.72368421 C13.8237368,2.42763158 13.4242068,2.23026316 13.4242068,1.93421053 C13.4242068,1.63815789 13.7638073,1.36184211 14.4629847,1.36184211 C15.0622797,1.34210526 15.4817861,1.48026316 15.8213866,1.61842105 L15.9811986,1.67763158 L16.2408931,0.256578947 Z" id="Shape" fill="#04239B"></path>
                <path d="M20.8754407,0.0986842105 L19.4770858,0.0986842105 C19.0376028,0.0986842105 18.7179788,0.217105263 18.5182139,0.651315789 L15.8413631,6.67105263 L17.7391304,6.67105263 C17.7391304,6.67105263 18.0387779,5.84210526 18.1186839,5.68421053 C18.3184489,5.68421053 20.1762632,5.68421053 20.4359577,5.68421053 C20.4958872,5.90131579 20.6556992,6.67105263 20.6556992,6.67105263 L22.333725,6.67105263 L20.8754407,0.0986842105 Z M18.6380729,4.32236842 C18.7779083,3.96710526 19.3572268,2.50657895 19.3572268,2.50657895 C19.3372503,2.52631579 19.5170388,2.13157895 19.5969448,1.875 L19.7168038,2.44736842 C19.7168038,2.44736842 20.0763807,4.00657895 20.1363102,4.32236842 L18.6380729,4.32236842 Z" id="Shape" fill="#04239B"></path>
                <path d="M6.35252644,0.0986842105 L4.5746181,4.57894737 L4.39482961,3.67105263 C4.05522914,2.625 3.03642773,1.5 1.87779083,0.927631579 L3.49588719,6.65131579 L5.41363102,6.65131579 L8.27027027,0.0986842105 L6.35252644,0.0986842105 Z" id="Shape" fill="#04239B"></path>
                <path d="M2.93654524,0.0986842105 L0.0199764982,0.0986842105 L0,0.236842105 C2.2573443,0.789473684 3.77555817,2.09210526 4.39482961,3.67105263 L3.75558167,0.651315789 C3.63572268,0.236842105 3.33607521,0.118421053 2.93654524,0.0986842105 Z" id="Shape" fill="#F7A707"></path>
            </g>
        </g>
    </g>
</svg>