<?xml version="1.0" encoding="UTF-8"?>
<svg width="45px" height="16px" viewBox="0 0 45 16" version="1.1" xmlns="http://www.w3.org/2000/svg" xmlns:xlink="http://www.w3.org/1999/xlink">
    <!-- Generator: Sketch 48.2 (47327) - http://www.bohemiancoding.com/sketch -->
    <title>mts</title>
    <desc>Created with Sketch.</desc>
    <defs></defs>
    <g id="bookmaker" stroke="none" stroke-width="1" fill="none" fill-rule="evenodd" transform="translate(-1174.000000, -796.000000)">
        <rect id="Rectangle-24" stroke-opacity="0.06" stroke="#000000" x="984.5" y="702.5" width="255" height="201"></rect>
        <g id="mts" transform="translate(1174.000000, 796.000000)" fill-rule="nonzero">
            <path d="M44.8588973,10.2890173 C44.8588973,10.2890173 43.9182127,10.4364162 42.8364254,10.4364162 C41.5194669,10.4364162 41.2372616,9.99421965 41.2372616,8.9132948 L41.2372616,7.5867052 C41.2372616,6.4566474 41.4724327,6.01445087 42.8364254,6.01445087 C43.8241442,6.01445087 44.7648288,6.16184971 44.7648288,6.16184971 L44.8588973,4.14739884 C44.8588973,4.14739884 43.6830415,4 42.6482885,4 C39.9203031,4 38.9325843,4.93352601 38.9325843,7.24277457 L38.9325843,9.25722543 C38.9325843,11.7630058 40.10844,12.5 42.6482885,12.5 C43.6360073,12.5 45,12.3034682 45,12.3034682 L44.8588973,10.2890173 Z" id="Shape" fill="#DC2025"></path>
            <polygon id="Shape" fill="#DC2025" points="30.9914078 6.01197605 33.3707865 6.01197605 33.3707865 12 35.8988764 12 35.8988764 6.01197605 38.2782551 6.01197605 38.4269663 4 30.8426966 4"></polygon>
            <polygon id="Shape" fill="#DC2025" points="25.8446629 11.1856287 27.0935393 8.11976048 27.2376404 8.11976048 27.5258427 12 29.8314607 12 29.3030899 4 27.0455056 4 25.1241573 8.5508982 24.9800562 8.5508982 22.9626404 4 20.7530899 4 20.2247191 12 22.4823034 12 22.7224719 8.11976048 22.866573 8.11976048 24.3075843 11.1856287"></polygon>
            <path d="M8.06573872,13.8985075 C11.1085024,13.8985075 12.4608419,11.558209 12.4608419,9.17014925 C12.4608419,5.87462687 10.1425457,2.05373134 8.06573872,2.05373134 C6.03722958,2.05373134 3.71893342,5.87462687 3.71893342,9.17014925 C3.71893342,11.558209 5.07127285,13.8985075 8.06573872,13.8985075 Z M16.1797753,14.3761194 C16.1797753,15.2835821 15.4553077,16 14.5376488,16 L1.59382861,16 C0.72446755,16 0,15.2835821 0,14.3761194 L0,1.5761194 C0,0.71641791 0.72446755,0 1.59382861,0 L14.5376488,0 C15.4553077,0 16.1797753,0.71641791 16.1797753,1.5761194 L16.1797753,14.3761194 Z" id="Shape" fill="#DC2025"></path>
            <path d="M12.6404494,9.20967742 C12.6404494,5.82258065 10.2268918,2 8.06474642,2 C5.95288348,2 3.53932584,5.82258065 3.53932584,9.20967742 C3.53932584,11.5806452 4.94723447,14 8.06474642,14 C11.2325408,14 12.6404494,11.5806452 12.6404494,9.20967742 Z" id="Shape" fill="#FEFEFE"></path>
        </g>
    </g>
</svg>