<?xml version="1.0" encoding="UTF-8"?>
<svg width="46px" height="16px" viewBox="0 0 46 16" version="1.1" xmlns="http://www.w3.org/2000/svg" xmlns:xlink="http://www.w3.org/1999/xlink">
    <!-- Generator: Sketch 48.2 (47327) - http://www.bohemiancoding.com/sketch -->
    <title>Skrill</title>
    <desc>Created with Sketch.</desc>
    <defs></defs>
    <g id="bookmaker" stroke="none" stroke-width="1" fill="none" fill-rule="evenodd" transform="translate(-1088.000000, -863.000000)">
        <rect id="Rectangle-24" stroke-opacity="0.06" stroke="#000000" x="984.5" y="702.5" width="255" height="201"></rect>
        <g id="Skrill" transform="translate(1088.000000, 863.000000)" fill="#822D64" fill-rule="nonzero">
            <path d="M32.9951535,3.86729858 C34.0355412,3.86729858 34.9273021,2.95734597 34.9273021,1.8957346 C34.9273021,0.834123223 34.0355412,0 32.9951535,0 C31.9547658,0 31.1373183,0.834123223 31.1373183,1.8957346 C31.1373183,2.95734597 31.9547658,3.86729858 32.9951535,3.86729858 Z M46,15.8483412 L46,0.909952607 L42.1357027,1.59241706 L42.1357027,15.8483412 L46,15.8483412 Z M18.5783522,4.85308057 C18.5040388,5.08056872 17.9095315,6.90047393 16.4232633,8.72037915 L16.4232633,0.909952607 L12.4103393,1.66824645 L12.4103393,15.8483412 L16.4232633,15.8483412 L16.4232633,11.450237 C17.5379645,13.1943128 18.1324717,15.8483412 18.1324717,15.8483412 L22.8142165,15.8483412 C22.368336,13.8767773 20.2875606,10.2369668 20.2875606,10.2369668 C22.1453958,7.81042654 22.9628433,5.30805687 23.1114701,4.85308057 L18.5783522,4.85308057 Z M28.9822294,4.77725118 C25.4151858,4.85308057 23.631664,6.44549763 23.631664,9.70616114 L23.631664,15.8483412 L27.4959612,15.8483412 L27.4959612,10.8436019 C27.4959612,8.87203791 27.7189015,8.11374408 29.9483037,8.03791469 L29.9483037,4.77725118 C29.5767367,4.7014218 28.9822294,4.77725118 28.9822294,4.77725118 Z M5.79644588,6.44549763 C5.35056543,6.44549763 4.2358643,6.36966825 4.2358643,5.30805687 C4.2358643,4.09478673 5.79644588,4.09478673 6.46526656,4.09478673 C7.50565428,4.09478673 8.84329564,4.39810427 9.88368336,4.7014218 C9.88368336,4.7014218 10.4038772,4.92890995 10.8497577,5.08056872 L10.9240711,5.08056872 L10.9240711,1.74407583 L10.8497577,1.66824645 C9.66074313,1.28909953 8.32310178,0.909952607 5.87075929,0.909952607 C1.56058158,0.909952607 0,3.41232227 0,5.61137441 C0,6.90047393 0.520193861,9.85781991 5.49919225,10.2369668 C5.87075929,10.2369668 6.98546042,10.3127962 6.98546042,11.3744076 C6.98546042,12.2843602 6.09369952,12.8151659 4.53311793,12.8151659 C2.89822294,12.8151659 1.26332795,12.3601896 0.297253635,11.9052133 L0.297253635,15.4691943 C1.78352181,15.8483412 3.4184168,16 5.35056543,16 C9.58642973,16 11.5185784,13.5734597 11.5185784,11.2227488 C11.5185784,8.492891 9.3634895,6.67298578 5.79644588,6.44549763 Z M31.1373183,15.8483412 L34.9273021,15.8483412 L34.9273021,4.92890995 L31.1373183,4.92890995 L31.1373183,15.8483412 Z M36.5621971,1.59241706 L40.4264943,0.909952607 L40.4264943,15.8483412 L36.5621971,15.8483412 L36.5621971,1.59241706 Z" id="Shape"></path>
        </g>
    </g>
</svg>