<?xml version="1.0" encoding="UTF-8"?>
<svg width="39px" height="24px" viewBox="0 0 39 24" version="1.1" xmlns="http://www.w3.org/2000/svg" xmlns:xlink="http://www.w3.org/1999/xlink">
    <!-- Generator: Sketch 48.2 (47327) - http://www.bohemiancoding.com/sketch -->
    <title>MasterCard</title>
    <desc>Created with Sketch.</desc>
    <defs></defs>
    <g id="bookmaker" stroke="none" stroke-width="1" fill="none" fill-rule="evenodd" transform="translate(-1092.000000, -725.000000)">
        <rect id="Rectangle-24" stroke-opacity="0.06" stroke="#000000" x="984.5" y="702.5" width="255" height="201"></rect>
        <g id="MasterCard" transform="translate(1092.000000, 725.000000)" fill-rule="nonzero">
            <path d="M14.9842105,11.9489362 C14.9842105,8.17021277 16.7289474,4.8 19.5,2.55319149 C17.4473684,0.919148936 14.8815789,0 12.0078947,0 C5.43947368,0 0,5.41276596 0,11.9489362 C0,18.587234 5.43947368,24 12.0078947,24 C14.8815789,24 17.4473684,22.9787234 19.5,21.3446809 C16.7289474,19.2 14.9842105,15.8297872 14.9842105,11.9489362 Z" id="Shape" fill="#E42126"></path>
            <path d="M14.9842105,11.9489362 C14.9842105,15.8297872 16.7289474,19.2 19.5,21.3446809 C22.2710526,19.2 24.1184211,15.8297872 24.1184211,11.9489362 C24.1184211,8.17021277 22.2710526,4.8 19.5,2.55319149 C16.7289474,4.8 14.9842105,8.17021277 14.9842105,11.9489362 Z" id="Shape" fill="#EB6420"></path>
            <path d="M26.9921053,0 C24.1184211,0 21.5526316,0.919148936 19.5,2.55319149 C22.2710526,4.8 24.1184211,8.17021277 24.1184211,11.9489362 C24.1184211,15.8297872 22.2710526,19.2 19.5,21.3446809 C21.5526316,22.9787234 24.1184211,24 26.9921053,24 C33.6631579,24 39,18.587234 39,11.9489362 C39,5.41276596 33.6631579,0 26.9921053,0 Z" id="Shape" fill="#F59F12"></path>
        </g>
    </g>
</svg>