<?xml version="1.0" encoding="UTF-8"?>
<svg width="13px" height="16px" viewBox="0 0 13 16" version="1.1" xmlns="http://www.w3.org/2000/svg" xmlns:xlink="http://www.w3.org/1999/xlink">
    <!-- Generator: Sketch 48.2 (47327) - http://www.bohemiancoding.com/sketch -->
    <title>app store</title>
    <desc>Created with Sketch.</desc>
    <defs></defs>
    <g id="bookmaker" stroke="none" stroke-width="1" fill="none" fill-rule="evenodd" transform="translate(-1185.000000, -572.000000)" opacity="0.600000024">
        <g id="app-store" transform="translate(1180.000000, 569.000000)">
            <circle id="Oval-7" cx="12" cy="12" r="12"></circle>
            <g id="if_16-apple_104490" transform="translate(5.000000, 3.000000)" fill="#000000" fill-rule="nonzero">
                <path d="M10.7097805,8.48544 C10.690122,6.4912 12.3211463,5.53472 12.3940732,5.4864 C11.4774146,4.13376 10.0493171,3.94816 9.54104878,3.92704 C8.32665854,3.80256 7.17029268,4.64896 6.55421951,4.64896 C5.93941463,4.64896 4.98756098,3.94528 3.98053659,3.9632 C2.65580488,3.98304 1.4347561,4.7408 0.75304878,5.9376 C-0.622731707,8.34624 0.401097561,11.91584 1.74168293,13.87072 C2.39707317,14.82624 3.17865854,15.90144 4.20407317,15.86208 C5.19239024,15.82272 5.56526829,15.21696 6.76,15.21696 C7.95473171,15.21696 8.29019512,15.86208 9.33558537,15.84192 C10.3984146,15.8224 11.0721951,14.86816 11.7221951,13.9088 C12.4746098,12.79872 12.7843902,11.72384 12.8027805,11.66944 C12.7796341,11.65856 10.7310244,10.86656 10.7097805,8.48544 Z" id="Shape"></path>
                <path d="M8.7455122,2.63328 C9.28929268,1.96704 9.65773171,1.04128 9.55753659,0.11968 C8.77278049,0.15168 7.82282927,0.64608 7.25939024,1.31168 C6.75460976,1.9024 6.3132439,2.84288 6.4315122,3.74784 C7.30695122,3.81632 8.19982927,3.29824 8.7455122,2.63328 Z" id="Shape"></path>
            </g>
        </g>
    </g>
</svg>