<?xml version="1.0" encoding="UTF-8"?>
<svg width="157px" height="35px" viewBox="0 0 157 35" version="1.1" xmlns="http://www.w3.org/2000/svg" xmlns:xlink="http://www.w3.org/1999/xlink">
    <!-- Generator: Sketch 48.2 (47327) - http://www.bohemiancoding.com/sketch -->
    <title>stavka-logo</title>
    <desc>Created with Sketch.</desc>
    <defs></defs>
    <g id="main" stroke="none" stroke-width="1" fill="none" fill-rule="evenodd" transform="translate(-120.000000, -3346.000000)">
        <g id="stavka-logo" transform="translate(120.000000, 3346.000000)" fill-rule="nonzero">
            <path d="M13.2,0 L109,0 L103.495,35 L0,35 L4.31,7.602 C4.99821147,3.2252314 8.76945395,0.000373656378 13.2,0 Z" id="Shape" fill="#FD213A"></path>
            <path d="M143.847,35 L108,35 L113.444,0 L157,0 L152.74,27.383 C152.058251,31.7668515 148.283546,34.9999484 143.847,35 Z" id="Shape" fill="#0161DA"></path>
            <path d="M83,10 L78.48,10 L74.33,14.922 L73.74,14.922 L74.656,10 L70.425,10 L68,23 L72.231,23 L73.153,18.06 L74.325,18.06 L76.472,23 L81.045,23 L77.734,16.038 L83,10 Z M37.47,10.116 L17.88,10.116 C16.4233739,10.110896 15.1726929,11.1508828 14.912,12.584 L13,23.357 L23.319,23.357 L23.889,20.142 L17.665,20.142 L18.654,14.566 C18.7843464,13.8494414 19.409687,13.329448 20.138,13.332 L29.355,13.332 L27.578,23.357 L31.673,23.357 L33.451,13.332 L36.901,13.332 L37.471,10.1159813 L37.47,10.116 Z M43.047,17.425 L45.078,13.393 L45.614,13.393 L46.146,17.425 L43.047,17.425 Z M44.715,10 C43.545,10 42.477,10.629 41.956,11.624 L36,23 L40.24,23 L41.459,20.58 L46.563,20.58 L46.883,23 L51,23 L49.035,10 L44.715,10 Z M89.047,17.425 L91.078,13.393 L91.614,13.393 L92.146,17.425 L89.047,17.425 Z M90.715,10 C89.545,10 88.477,10.629 87.956,11.624 L82,23 L86.24,23 L87.459,20.58 L92.563,20.58 L92.883,23 L97,23 L95.035,10 L90.715,10 Z M62.423,15.04 L58.749,15.04 L59.102,13.158 L63.275,13.158 L62.423,15.039 L62.423,15.04 Z M62.224,19.843 L57.848,19.843 L58.247,17.717 L62.622,17.717 L62.224,19.843 Z M64.146,10 L57.944,10 L57.944,10.006 C56.478,10.06 55.24,11.062 54.984,12.424 L53,23 L62.935,23 C64.455,23 65.755,21.977 66.018,20.575 L66.657,17.162 L66.65,17.162 L66.703,16.882 L64.843,16.492 L67.253,13.969 L68,10 L64.145,10 L64.146,10 Z M142.657,10 L137.862,19.746 L136.619,10 L122.003,10 C121.213,10 120.539,10.55 120.403,11.306 L120,13.4 L124.417,13.4 L122.499,24 L126.917,24 L128.835,13.4 L132.779,13.4 L134.347,24 L138.405,24 L138.397,23.942 C139.394402,23.7725024 140.255257,23.1465607 140.724,22.25 L147,10 L142.657,10 Z" id="Shape" fill="#FFFFFF"></path>
        </g>
    </g>
</svg>