<?xml version="1.0" encoding="UTF-8"?>
<svg width="14px" height="12px" viewBox="0 0 14 12" version="1.1" xmlns="http://www.w3.org/2000/svg" xmlns:xlink="http://www.w3.org/1999/xlink">
    <!-- Generator: Sketch 48.2 (47327) - http://www.bohemiancoding.com/sketch -->
    <title>Group 8</title>
    <desc>Created with Sketch.</desc>
    <defs></defs>
    <g id="bookmaker" stroke="none" stroke-width="1" fill="none" fill-rule="evenodd" transform="translate(-1193.000000, -447.000000)" opacity="0.600000024">
        <g id="Group-8" transform="translate(1192.000000, 445.000000)">
            <rect id="Rectangle-40" x="0" y="0" width="16" height="16"></rect>
            <path d="M4,9 L1,12 L1,9 L1,3 C1,2.44771525 1.44771525,2 2,2 L9,2 C9.55228475,2 10,2.44771525 10,3 L10,8 C10,8.55228475 9.55228475,9 9,9 L4,9 Z M11,4 L14,4 C14.5522847,4 15,4.44771525 15,5 L15,11 L15,14 L12,11 L6,11 C5.44771525,11 5,10.5522847 5,10 L10,10 C10.5522847,10 11,9.55228475 11,9 L11,4 Z" id="Combined-Shape" fill="#000000"></path>
        </g>
    </g>
</svg>