<?xml version="1.0" encoding="UTF-8"?>
<svg width="16px" height="12px" viewBox="0 0 16 12" version="1.1" xmlns="http://www.w3.org/2000/svg" xmlns:xlink="http://www.w3.org/1999/xlink">
    <!-- Generator: Sketch 48.2 (47327) - http://www.bohemiancoding.com/sketch -->
    <title>Group 4</title>
    <desc>Created with Sketch.</desc>
    <defs></defs>
    <g id="bookmaker" stroke="none" stroke-width="1" fill="none" fill-rule="evenodd" transform="translate(-1192.000000, -303.000000)">
        <g id="Group-4" transform="translate(1192.000000, 303.000000)">
            <path d="M1,0 L9,0 L9,7 L0,7 L0,1 C-6.76353751e-17,0.44771525 0.44771525,1.01453063e-16 1,0 Z" id="Rectangle-35" fill="#2150BC"></path>
            <path d="M9,0 L15,0 C15.5522847,-1.01453063e-16 16,0.44771525 16,1 L9,1 L9,0 Z" id="Rectangle-36" fill="#DC251C"></path>
            <rect id="Rectangle-36" fill="#F4F4F4" x="9" y="1" width="7" height="1"></rect>
            <rect id="Rectangle-36" fill="#DC251C" x="9" y="2" width="7" height="1"></rect>
            <rect id="Rectangle-36" fill="#F4F4F4" x="9" y="3" width="7" height="1"></rect>
            <rect id="Rectangle-36" fill="#DC251C" x="9" y="4" width="7" height="1"></rect>
            <rect id="Rectangle-36" fill="#F4F4F4" x="9" y="5" width="7" height="1"></rect>
            <rect id="Rectangle-36" fill="#F4F4F4" x="0" y="7" width="16" height="1"></rect>
            <rect id="Rectangle-36" fill="#F4F4F4" x="0" y="9" width="16" height="1"></rect>
            <rect id="Rectangle-36" fill="#DC251C" x="0" y="10" width="16" height="1"></rect>
            <rect id="Rectangle-36" fill="#DC251C" x="0" y="8" width="16" height="1"></rect>
            <path d="M0,11 L16,11 L16,11 C16,11.5522847 15.5522847,12 15,12 L1,12 C0.44771525,12 6.76353751e-17,11.5522847 0,11 Z" id="Rectangle-36" fill="#F4F4F4"></path>
            <rect id="Rectangle-36" fill="#DC251C" x="9" y="6" width="7" height="1"></rect>
            <path d="M1,1 L2,1 L2,2 L1,2 L1,1 Z M3,1 L4,1 L4,2 L3,2 L3,1 Z M5,1 L6,1 L6,2 L5,2 L5,1 Z M7,1 L8,1 L8,2 L7,2 L7,1 Z M6,2 L7,2 L7,3 L6,3 L6,2 Z M4,2 L5,2 L5,3 L4,3 L4,2 Z M2,2 L3,2 L3,3 L2,3 L2,2 Z M1,3 L2,3 L2,4 L1,4 L1,3 Z M3,3 L4,3 L4,4 L3,4 L3,3 Z M5,3 L6,3 L6,4 L5,4 L5,3 Z M7,3 L8,3 L8,4 L7,4 L7,3 Z M6,4 L7,4 L7,5 L6,5 L6,4 Z M4,4 L5,4 L5,5 L4,5 L4,4 Z M2,4 L3,4 L3,5 L2,5 L2,4 Z M1,5 L2,5 L2,6 L1,6 L1,5 Z M3,5 L4,5 L4,6 L3,6 L3,5 Z M5,5 L6,5 L6,6 L5,6 L5,5 Z M7,5 L8,5 L8,6 L7,6 L7,5 Z" id="Combined-Shape" fill="#C5D0EC"></path>
        </g>
    </g>
</svg>