<?xml version="1.0" encoding="UTF-8"?>
<svg width="12px" height="14px" viewBox="0 0 12 14" version="1.1" xmlns="http://www.w3.org/2000/svg" xmlns:xlink="http://www.w3.org/1999/xlink">
    <!-- Generator: Sketch 48.2 (47327) - http://www.bohemiancoding.com/sketch -->
    <title>google play</title>
    <desc>Created with Sketch.</desc>
    <defs></defs>
    <g id="main" stroke="none" stroke-width="1" fill="none" fill-rule="evenodd" transform="translate(-1222.000000, -4616.000000)" opacity="0.600000024">
        <g id="google-play" transform="translate(1216.000000, 4611.000000)">
            <circle id="Oval-7" cx="12" cy="12" r="12"></circle>
            <g id="if_social_google_play_710294" transform="translate(6.000000, 5.000000)" fill="#FFFFFF" fill-rule="nonzero">
                <polygon id="Shape" points="8.63529412 4.56842105 7.10588235 6.53333333 2.87058824 1.05614035"></polygon>
                <path d="M0.894117647,13.8035088 C0.4,13.8035088 0.0941176471,13.3368421 0.0941176471,12.5754386 L0.0941176471,1.27719298 C0.0941176471,0.90877193 0.164705882,0.049122807 0.870588235,0.049122807 C1.08235294,0.049122807 1.34117647,0.147368421 1.62352941,0.294736842 L1.67058824,0.319298246 C1.67058824,0.343859649 1.69411765,0.368421053 1.69411765,0.392982456 L6.77647059,6.92631579 L1.71764706,13.4596491 C1.69411765,13.4842105 1.69411765,13.5087719 1.67058824,13.5333333 L1.64705882,13.5578947 C1.36470588,13.7298246 1.10588235,13.8035088 0.894117647,13.8035088 Z" id="Shape"></path>
                <polygon id="Shape" points="7.10588235 7.34385965 8.63529412 9.30877193 2.84705882 12.8210526"></polygon>
                <path d="M11.2235294,7.90877193 L9.38823529,9.01403509 L7.74117647,6.90175439 L9.38823529,4.78947368 L11.2470588,5.91929825 C11.6941176,6.18947368 11.9294118,6.53333333 11.9294118,6.87719298 C11.9294118,7.27017544 11.6705882,7.63859649 11.2235294,7.90877193 Z" id="Shape"></path>
            </g>
        </g>
    </g>
</svg>