<?xml version="1.0" encoding="UTF-8"?>
<svg width="16px" height="16px" viewBox="0 0 16 16" version="1.1" xmlns="http://www.w3.org/2000/svg" xmlns:xlink="http://www.w3.org/1999/xlink">
    <!-- Generator: Sketch 48.2 (47327) - http://www.bohemiancoding.com/sketch -->
    <title>bonus icons</title>
    <desc>Created with Sketch.</desc>
    <defs></defs>
    <g id="main" stroke="none" stroke-width="1" fill="none" fill-rule="evenodd" transform="translate(-120.000000, -3937.000000)">
        <g id="bonus-icons" transform="translate(120.000000, 3937.000000)">
            <circle id="Combined-Shape" stroke="#FF4242" stroke-width="1.5" cx="8" cy="8" r="7.25"></circle>
            <path d="M5.253,7.952 L6.166,7.952 L6.166,4.3 L8.212,4.3 C8.70333579,4.3 9.12133161,4.36783265 9.466,4.5035 C9.81066839,4.63916734 10.0911656,4.81883221 10.3075,5.0425 C10.5238344,5.26616779 10.6814995,5.52649852 10.7805,5.8235 C10.8795005,6.12050149 10.929,6.42666509 10.929,6.742 C10.929,7.06466828 10.8795005,7.36899857 10.7805,7.655 C10.6814995,7.94100143 10.5238344,8.1939989 10.3075,8.414 C10.0911656,8.6340011 9.81066839,8.80816602 9.466,8.9365 C9.12133161,9.06483398 8.70333579,9.129 8.212,9.129 L7.596,9.129 L7.596,9.965 L9.532,9.965 L9.532,11.098 L7.596,11.098 L7.596,12 L6.166,12 L6.166,11.098 L5.253,11.098 L5.253,9.965 L6.166,9.965 L6.166,9.129 L5.253,9.129 L5.253,7.952 Z M8.069,7.952 C8.26700099,7.952 8.4521658,7.93550017 8.6245,7.9025 C8.79683419,7.86949984 8.94899934,7.80900044 9.081,7.721 C9.21300066,7.63299956 9.3156663,7.51016746 9.389,7.3525 C9.4623337,7.19483254 9.499,6.99133458 9.499,6.742 C9.499,6.49266542 9.4623337,6.28366751 9.389,6.115 C9.3156663,5.94633249 9.21300066,5.8125005 9.081,5.7135 C8.94899934,5.6144995 8.79683419,5.54483354 8.6245,5.5045 C8.4521658,5.46416646 8.26700099,5.444 8.069,5.444 L7.596,5.444 L7.596,7.952 L8.069,7.952 Z" id="₽" fill="#FF4242"></path>
        </g>
    </g>
</svg>