<?xml version="1.0" encoding="UTF-8"?>
<svg width="123px" height="24px" viewBox="0 0 123 24" version="1.1" xmlns="http://www.w3.org/2000/svg" xmlns:xlink="http://www.w3.org/1999/xlink">
    <!-- Generator: Sketch 48.2 (47327) - http://www.bohemiancoding.com/sketch -->
    <title>Leon-Ru-dark</title>
    <desc>Created with Sketch.</desc>
    <defs>
        <rect id="path-1" x="120" y="233" width="832" height="72"></rect>
        <filter x="-0.1%" y="-0.7%" width="100.1%" height="101.4%" filterUnits="objectBoundingBox" id="filter-2">
            <feOffset dx="0" dy="-1" in="SourceAlpha" result="shadowOffsetInner1"></feOffset>
            <feComposite in="shadowOffsetInner1" in2="SourceAlpha" operator="arithmetic" k2="-1" k3="1" result="shadowInnerInner1"></feComposite>
            <feColorMatrix values="0 0 0 0 0   0 0 0 0 0   0 0 0 0 0  0 0 0 0.06 0" type="matrix" in="shadowInnerInner1"></feColorMatrix>
        </filter>
    </defs>
    <g id="rating" stroke="none" stroke-width="1" fill="none" fill-rule="evenodd" transform="translate(-209.000000, -257.000000)">
        <g id="Rectangle-24" fill="black" fill-opacity="1">
            <use filter="url(#filter-2)" xlink:href="#path-1"></use>
        </g>
        <g id="Leon-Ru-dark" transform="translate(209.000000, 257.000000)">
            <ellipse id="Oval" fill="#FEFEFE" transform="translate(56.257362, 12.000557) rotate(-90.000000) translate(-56.257362, -12.000557) " cx="56.257362" cy="12.000557" rx="11.894866" ry="11.9983796"></ellipse>
            <path d="M0.018404908,21.1177722 L5.37883436,0.816863276 C5.44325153,0.589441114 5.64110429,0.431637981 5.87576687,0.431637981 L11.5858896,0.431637981 C11.7515337,0.431637981 11.8941718,0.505898279 11.9953988,0.6358538 C12.0966258,0.77045059 12.1288344,0.923612454 12.0828221,1.08605686 L7.93251534,16.7178495 C7.89110429,16.8802939 7.91871166,17.0380971 8.01993865,17.1680526 C8.12116564,17.3026494 8.26380368,17.3722684 8.42944785,17.3722684 L19.458589,17.3722684 C19.6242331,17.3722684 19.7668712,17.4418874 19.8680982,17.5764842 C19.9693252,17.7064398 19.9969325,17.8642429 19.9555215,18.0266873 L19.0582822,21.3869658 C18.993865,21.6143879 18.7960123,21.7721911 18.5613497,21.7721911 L0.515337423,21.7721911 C0.349693252,21.7721911 0.207055215,21.6979308 0.105828221,21.5679752 C0.00920245399,21.4333785 -0.023006135,21.2802166 0.018404908,21.1177722 Z" id="Shape" fill="#222426" fill-rule="nonzero"></path>
            <path d="M27.5107362,0.431637981 L44.2361963,0.431637981 C44.4340491,0.431637981 44.6042945,0.519822085 44.7239264,0.677625218 C44.8435583,0.83542835 44.8803681,1.02107909 44.8343558,1.21137111 L44.7239264,1.63836782 C43.9233129,2.53877393 43.2285276,3.54128795 42.6533742,4.613421 C42.5797546,4.75265906 42.446319,4.83156063 42.2944785,4.83156063 L32.7745399,4.83156063 C32.4892638,4.83156063 32.25,5.01721137 32.1809816,5.29568749 L31.4539877,8.07580739 C31.4033742,8.27074067 31.440184,8.45639141 31.559816,8.61419455 C31.6794479,8.77199768 31.8496933,8.85554051 32.047546,8.85554051 L40.5644172,8.85554051 C40.7622699,8.85554051 40.9325153,8.93908335 41.0521472,9.10152775 C41.1717791,9.25933088 41.208589,9.44498163 41.1579755,9.63991491 L40.3481595,12.7309998 C40.2745399,13.0048347 40.0352761,13.1904854 39.75,13.1904854 L30.5843558,13.1904854 C30.2990798,13.1904854 30.059816,13.3761361 29.9861963,13.6546123 L29.1855828,16.6482305 C29.1349693,16.8431638 29.1717791,17.0334558 29.291411,17.1912589 C29.4110429,17.3490621 29.5858896,17.4326049 29.7837423,17.4326049 L41.1993865,17.4326049 C41.3972393,17.4326049 41.5674847,17.520789 41.6871166,17.6785921 C41.8067485,17.8363953 41.8435583,18.0266873 41.7929448,18.2216206 L40.9555215,21.3127055 C40.8819018,21.5865403 40.642638,21.7721911 40.3619632,21.7721911 L21.8328221,21.7721911 C21.6671779,21.7721911 21.5245399,21.6979308 21.4233129,21.5679752 C21.3220859,21.4333785 21.2898773,21.2802166 21.3358896,21.1177722 L26.6134969,1.12782827 C26.7239264,0.714755366 27.0828221,0.431637981 27.5107362,0.431637981 Z" id="Shape" fill="#222426" fill-rule="nonzero"></path>
            <path d="M77.1579755,10.8187971 L74.4202454,21.4101721 C74.3650307,21.6236705 74.1809816,21.7721911 73.9555215,21.7721911 L68.1763804,21.7350609 C68.0567485,21.7304196 67.9509202,21.6793657 67.8773006,21.5865403 C67.803681,21.4890737 67.7806748,21.373042 67.8128834,21.2570102 L67.8220859,21.2198801 C69.809816,18.6857474 70.9969325,15.4832721 70.9969325,12.0023206 C70.9969325,11.403597 70.9647239,10.8187971 70.8957055,10.2386386 C70.8726994,10.0344227 70.8865031,9.85341327 70.9371166,9.64919745 L73.2607362,1.02107909 C73.357362,0.66834268 73.6610429,0.431637981 74.0245399,0.431637981 L78.4831288,0.431637981 C78.7822086,0.431637981 79.0398773,0.589441114 79.1779141,0.858634693 L84.9248466,11.8816477 C84.9662577,11.9559079 85.0444785,11.9976794 85.1273006,11.9883968 C85.2147239,11.9791143 85.2837423,11.9234191 85.3021472,11.835235 L88.3849693,0.431637981 L94.1871166,0.431637981 C94.3435583,0.431637981 94.4769939,0.50125701 94.5690184,0.621929994 C94.6656442,0.747244247 94.6932515,0.891123574 94.6518405,1.04428544 L89.3328221,21.1781087 C89.2407975,21.5308451 88.9325153,21.7721911 88.5736196,21.7721911 L84.2162577,21.7721911 C83.9263804,21.7721911 83.6733129,21.6236705 83.5306748,21.3684007 L77.5352761,10.7677432 C77.493865,10.6934829 77.4156442,10.6563527 77.3328221,10.6656353 C77.2453988,10.6795591 77.1809816,10.7352543 77.1579755,10.8187971 Z" id="Shape" fill="#222426" fill-rule="nonzero"></path>
            <path d="M54.6625767,0.106749178 C50.6411043,0.649777606 47.2546012,3.22104042 45.547546,6.76696964 L51.7177914,5.55095726 L54.6625767,0.106749178 Z M44.5122699,10.0761942 C44.4110429,10.7027654 44.3604294,11.3479018 44.3604294,12.0023206 C44.3604294,15.4043705 45.7638037,18.4768904 48.0230061,20.6629279 L48.7315951,14.5643009 L44.5122699,10.0761942 Z M50.9309816,22.7329337 C52.5368098,23.5451557 54.345092,24 56.2592025,24 C58.2239264,24 60.0782209,23.5219493 61.7070552,22.6679559 L56.351227,20.1106169 L50.9309816,22.7329337 Z M64.803681,20.3473216 C66.8788344,18.1891317 68.1533742,15.2465674 68.1533742,12.0023206 C68.1533742,11.4221621 68.1119632,10.851286 68.0337423,10.2943338 L64.0904908,14.582866 L64.803681,20.3473216 Z M66.9018405,6.63701412 C65.2361963,3.28137691 62.0521472,0.816863276 58.256135,0.171726939 L61.154908,5.61129375 L66.9018405,6.63701412 Z" id="Shape" fill="#D62628"></path>
            <polygon id="Shape" fill="#D62628" points="56.2177914 17.7342874 58.8819018 15.7849546 61.5460123 13.8309805 60.5291411 10.6702765 59.5122699 7.50957262 56.2177914 7.50957262 52.9233129 7.50957262 51.9064417 10.6702765 50.8895706 13.8309805 53.553681 15.7849546"></polygon>
            <path d="M97.7392638,17.3583446 L116.682515,17.3583446 C118.113497,17.3583446 119.599693,16.1794624 119.986196,14.7360278 L122.875767,3.94043705 C123.391104,2.01431058 122.25,0.43627925 120.33589,0.43627925 L101.553681,0.43627925 C100.122699,0.43627925 98.6319018,1.61516148 98.2453988,3.05859602 L95.3144172,14.0119899 C94.8220859,15.8545736 95.9125767,17.3583446 97.7392638,17.3583446 Z M111.602761,10.1690195 C111.575153,10.2757687 111.556748,10.3871592 111.552147,10.4985496 C111.547546,10.660994 111.575153,10.8234384 111.657975,10.9626765 C111.740798,11.092632 111.846626,11.2040224 111.97546,11.2875653 C112.118098,11.3803906 112.279141,11.4360859 112.444785,11.473216 C112.624233,11.5103462 112.803681,11.5335525 112.98773,11.5335525 C113.236196,11.5335525 113.480061,11.5057049 113.719325,11.4500097 C113.949387,11.3989557 114.170245,11.3200541 114.372699,11.1993812 C114.570552,11.0833494 114.740798,10.9348289 114.888037,10.7584606 C115.04908,10.5635274 115.154908,10.3361052 115.223926,10.0947592 L116.576687,5.29104622 L118.412577,5.29104622 L116.944785,10.4382131 C116.829755,10.8234384 116.650307,11.1808161 116.397239,11.4964224 C116.139571,11.8120286 115.83589,12.0672984 115.486196,12.2715142 C115.113497,12.4896538 114.708589,12.6428157 114.289877,12.7402823 C113.825153,12.8516728 113.342025,12.8980855 112.863497,12.8980855 C112.467791,12.8980855 112.067485,12.8563141 111.67638,12.76813 C111.322086,12.6845871 110.976994,12.5592729 110.668712,12.3596983 C110.388037,12.1786888 110.148773,11.9466254 109.973926,11.663508 C109.789877,11.3571843 109.720859,11.0183717 109.734663,10.6656353 C109.739264,10.5681686 109.748466,10.470702 109.76227,10.3732354 C109.776074,10.2664862 109.79908,10.1643783 109.826687,10.0622704 L111.184049,5.29104622 L113.006135,5.29104622 L111.602761,10.1690195 Z M107.047546,9.75130536 L107.880368,12.8331077 L105.947853,12.8331077 L105.920245,12.7309998 C105.805215,12.2575904 105.690184,11.7888223 105.579755,11.3154129 C105.478528,10.8791336 105.377301,10.4428544 105.276074,10.0112164 L103.421779,10.0112164 C103.288344,10.4428544 103.16411,10.8791336 103.044479,11.3200541 C102.915644,11.7934635 102.782209,12.2622317 102.648773,12.7356411 L102.621166,12.8331077 L100.79908,12.8331077 L102.943252,5.29104622 L106.904908,5.29104622 C107.254601,5.29104622 107.613497,5.33281764 107.944785,5.45813189 C108.211656,5.5602398 108.464724,5.70411913 108.667178,5.90369368 C108.855828,6.08934442 108.998466,6.30748405 109.08589,6.55347128 C109.173313,6.79017598 109.214724,7.04080449 109.20092,7.29143299 C109.191718,7.53277896 109.145706,7.76948366 109.062883,7.99690582 C108.970859,8.25217559 108.832822,8.48423903 108.662577,8.69309611 C108.464724,8.93444208 108.220859,9.1386579 107.958589,9.31038484 C107.677914,9.50067685 107.365031,9.63991491 107.047546,9.75130536 Z M104.378834,6.65557919 L103.808282,8.64668343 L105.722393,8.64668343 C105.947853,8.64668343 106.168712,8.61419455 106.380368,8.54921679 C106.569018,8.48888029 106.753067,8.40997873 106.91411,8.29394701 C107.056748,8.1918391 107.17638,8.06652485 107.263804,7.91336299 C107.346626,7.76020112 107.392638,7.60239799 107.397239,7.42602978 C107.406442,7.20324889 107.337423,7.01759814 107.167178,6.87371882 C106.955521,6.69270934 106.624233,6.65557919 106.357362,6.65557919 L104.378834,6.65557919 Z" id="Shape" fill="#222426"></path>
            <path d="M107.047546,9.75130536 C107.365031,9.63991491 107.677914,9.50067685 107.958589,9.31038484 C108.220859,9.1386579 108.464724,8.93444208 108.662577,8.69309611 C108.832822,8.48423903 108.970859,8.25217559 109.062883,7.99690582 C109.145706,7.76948366 109.191718,7.53277896 109.20092,7.29143299 C109.214724,7.04080449 109.173313,6.79017598 109.08589,6.55347128 C108.998466,6.30748405 108.855828,6.08934442 108.667178,5.90369368 C108.464724,5.70411913 108.211656,5.5602398 107.944785,5.45813189 C107.613497,5.33281764 107.254601,5.29104622 106.904908,5.29104622 L102.943252,5.29104622 L100.79908,12.8331077 L102.621166,12.8331077 L102.648773,12.7356411 C102.782209,12.2622317 102.915644,11.7934635 103.044479,11.3200541 C103.16411,10.8791336 103.288344,10.4428544 103.421779,10.0112164 L105.276074,10.0112164 C105.377301,10.4428544 105.478528,10.8791336 105.579755,11.3154129 C105.690184,11.7888223 105.805215,12.2575904 105.920245,12.7309998 L105.947853,12.8331077 L107.880368,12.8331077 L107.047546,9.75130536 Z M107.167178,6.87371882 C107.337423,7.01759814 107.406442,7.20324889 107.397239,7.42602978 C107.392638,7.60239799 107.346626,7.76020112 107.263804,7.91336299 C107.17638,8.06652485 107.056748,8.1918391 106.91411,8.29394701 C106.753067,8.40997873 106.569018,8.48888029 106.380368,8.54921679 C106.168712,8.61419455 105.947853,8.64668343 105.722393,8.64668343 L103.808282,8.64668343 L104.378834,6.65557919 L106.357362,6.65557919 C106.624233,6.65557919 106.955521,6.69270934 107.167178,6.87371882 Z" id="Shape" fill="#FEFEFE"></path>
            <path d="M111.184049,5.29104622 L109.826687,10.0622704 C109.79908,10.1643783 109.776074,10.2664862 109.76227,10.3732354 C109.748466,10.470702 109.739264,10.5681686 109.734663,10.6656353 C109.720859,11.0183717 109.789877,11.3571843 109.973926,11.663508 C110.148773,11.9466254 110.388037,12.1786888 110.668712,12.3596983 C110.976994,12.5592729 111.322086,12.6845871 111.67638,12.76813 C112.067485,12.8563141 112.467791,12.8980855 112.863497,12.8980855 C113.342025,12.8980855 113.825153,12.8516728 114.289877,12.7402823 C114.708589,12.6428157 115.113497,12.4896538 115.486196,12.2715142 C115.83589,12.0672984 116.139571,11.8120286 116.397239,11.4964224 C116.650307,11.1808161 116.829755,10.8234384 116.944785,10.4382131 L118.412577,5.29104622 L116.576687,5.29104622 L115.223926,10.0947592 C115.154908,10.3361052 115.04908,10.5635274 114.888037,10.7584606 C114.740798,10.9348289 114.570552,11.0833494 114.372699,11.1993812 C114.170245,11.3200541 113.949387,11.3989557 113.719325,11.4500097 C113.480061,11.5057049 113.236196,11.5335525 112.98773,11.5335525 C112.803681,11.5335525 112.624233,11.5103462 112.444785,11.473216 C112.279141,11.4360859 112.118098,11.3803906 111.97546,11.2875653 C111.846626,11.2040224 111.740798,11.092632 111.657975,10.9626765 C111.575153,10.8234384 111.547546,10.660994 111.552147,10.4985496 C111.556748,10.3871592 111.575153,10.2757687 111.602761,10.1690195 L113.006135,5.29104622 L111.184049,5.29104622 Z" id="Shape" fill="#FEFEFE"></path>
        </g>
    </g>
</svg>