<?xml version="1.0" encoding="UTF-8"?>
<svg width="93px" height="32px" viewBox="0 0 93 32" version="1.1" xmlns="http://www.w3.org/2000/svg" xmlns:xlink="http://www.w3.org/1999/xlink">
    <!-- Generator: Sketch 48.2 (47327) - http://www.bohemiancoding.com/sketch -->
    <title>fonbet-logo-dark</title>
    <desc>Created with Sketch.</desc>
    <defs>
        <rect id="path-1" x="120" y="665" width="832" height="72"></rect>
        <filter x="-0.1%" y="-0.7%" width="100.1%" height="101.4%" filterUnits="objectBoundingBox" id="filter-2">
            <feOffset dx="0" dy="-1" in="SourceAlpha" result="shadowOffsetInner1"></feOffset>
            <feComposite in="shadowOffsetInner1" in2="SourceAlpha" operator="arithmetic" k2="-1" k3="1" result="shadowInnerInner1"></feComposite>
            <feColorMatrix values="0 0 0 0 0   0 0 0 0 0   0 0 0 0 0  0 0 0 0.06 0" type="matrix" in="shadowInnerInner1"></feColorMatrix>
        </filter>
    </defs>
    <g id="rating" stroke="none" stroke-width="1" fill="none" fill-rule="evenodd" transform="translate(-209.000000, -685.000000)">
        <g id="Rectangle-24" fill="black" fill-opacity="1">
            <use filter="url(#filter-2)" xlink:href="#path-1"></use>
        </g>
        <g id="fonbet-logo-dark" transform="translate(209.000000, 685.000000)" fill-rule="nonzero">
            <g id="background" fill="#D42A28">
                <rect id="canvas_background" x="0" y="0" width="93" height="32"></rect>
            </g>
            <g id="Layer-1" transform="translate(4.810345, 4.800000)" fill="#FFFFFF">
                <path d="M0.0561968534,20.24 C0.0561968534,21.12 0.537231336,21.6 1.33895547,21.6 C1.65964513,21.6 1.98033478,21.52 2.22085203,21.36 L2.22085203,20.8 C1.98033478,20.96 1.73981754,21.04 1.41912789,21.04 C0.938093405,21.04 0.697576164,20.72 0.697576164,20.16 C0.697576164,19.44 1.09843823,18.8 1.73981754,18.8 C1.98033478,18.8 2.22085203,18.88 2.46136927,19.12 L2.62171409,18.56 C2.38119685,18.4 2.0605072,18.32 1.73981754,18.32 C0.777748578,18.32 0.0561968534,19.2 0.0561968534,20.24 Z M13.6053348,19.12 C13.6053348,18.72 13.2846451,18.4 12.6432658,18.4 L11.7613693,18.4 L11.2803348,21.6 L12.2424037,21.6 C13.0441279,21.6 13.6053348,21.28 13.6053348,20.56 C13.6053348,20.24 13.44499,20 13.1243003,19.92 C13.3648175,19.76 13.6053348,19.52 13.6053348,19.12 Z M12.1622313,21.12 L11.8415417,21.12 L12.0018865,20.16 L12.2424038,20.16 C12.6432658,20.16 12.8837831,20.32 12.8837831,20.64 C12.8837831,20.96 12.6432658,21.12 12.1622313,21.12 Z M12.4027486,19.68 L12.1622313,19.68 L12.3225762,18.8 L12.5630934,18.8 C12.8837831,18.8 13.0441279,18.96 13.0441279,19.2 C12.9639555,19.52 12.7234382,19.68 12.4027486,19.68 Z M30.5217141,18.4 L28.8380934,21.6 L29.4794727,21.6 L29.8803348,20.8 L31.0027486,20.8 L31.1630934,21.68 L31.8044727,21.6 L31.1630934,18.48 C31.1630934,18.4 30.5217141,18.4 30.5217141,18.4 Z M30.120852,20.24 L30.6820589,19.04 L30.9225762,20.24 L30.120852,20.24 Z M27.1544727,19.68 L25.8717141,19.68 L26.1122313,18.4 L25.470852,18.4 L24.9898175,21.6 L25.6311969,21.6 L25.8717141,20.24 L27.1544727,20.24 L26.9139555,21.6 L27.5553348,21.6 L28.0363693,18.4 L27.3148175,18.4 C27.3148175,18.4 27.1544727,19.68 27.1544727,19.68 Z M8.55447272,18.4 L6.87085203,21.6 L7.51223134,21.6 L7.91309341,20.8 L9.0355072,20.8 L9.19585203,21.68 L9.83723134,21.6 L9.19585203,18.48 L8.55447272,18.48 L8.55447272,18.4 Z M8.15361065,20.24 L8.71481754,19.04 L8.95533478,20.24 L8.15361065,20.24 Z M17.0527486,18.4 L15.76999,19.76 L16.0105072,18.4 L15.3691279,18.4 L14.8880934,21.6 L15.5294727,21.6 L15.76999,20.08 L16.7320589,21.68 L17.3734382,21.6 L16.4113693,20 L17.8544727,18.48 C17.7743003,18.4 17.0527486,18.4 17.0527486,18.4 Z M19.457921,20.56 L19.7786106,18.4 L19.2174037,18.4 L18.7363693,21.6 L19.2975762,21.6 L20.9811969,19.36 L20.6605072,21.6 L21.2217141,21.6 L21.7027486,18.4 L21.0613693,18.4 L19.457921,20.56 Z M3.90447272,18.88 L4.86654168,18.88 L4.46567961,21.52 L5.10705892,21.52 L5.50792099,18.88 L6.46998996,18.88 L6.46998996,18.4 L4.06481754,18.4 L3.90447272,18.88 Z M70.2872313,18.4 C69.5656796,18.4 69.0846451,18.88 69.0846451,19.6 C69.0846451,20.16 69.4053348,20.48 69.8863693,20.48 C70.1268865,20.48 70.3674038,20.4 70.607921,20.24 C70.4475762,20.72 69.9665417,21.04 69.1648175,21.2 L69.1648175,21.68 C70.3674038,21.44 71.2493003,20.72 71.2493003,19.52 C71.3294727,18.8 70.9286106,18.4 70.2872313,18.4 Z M70.7682658,19.76 C70.5277486,19.92 70.3674038,20 70.1268865,20 C69.8061969,20 69.645852,19.84 69.645852,19.52 C69.645852,19.12 69.8863693,18.8 70.2872313,18.8 C70.607921,18.8 70.7682658,19.04 70.7682658,19.52 C70.7682658,19.6 70.7682658,19.68 70.7682658,19.76 Z M66.6794727,18.4 C65.957921,18.4 65.4768865,18.88 65.4768865,19.6 C65.4768865,20.16 65.7975762,20.48 66.2786106,20.48 C66.5191279,20.48 66.7596451,20.4 67.0001624,20.24 C66.8398175,20.72 66.3587831,21.04 65.5570589,21.2 L65.5570589,21.68 C66.7596451,21.44 67.6415417,20.72 67.6415417,19.52 C67.6415417,18.8 67.2406796,18.4 66.6794727,18.4 Z M67.0803348,19.76 C66.8398175,19.92 66.6794727,20 66.4389555,20 C66.1182658,20 65.957921,19.84 65.957921,19.52 C65.957921,19.12 66.1984382,18.8 66.5993003,18.8 C66.91999,18.8 67.0803348,19.04 67.0803348,19.52 C67.1605072,19.6 67.0803348,19.68 67.0803348,19.76 Z M74.8570589,18.48 L74.2156796,18.48 L72.5320589,20.56 L72.4518865,20.96 L73.89499,20.96 L73.8148175,21.6 L74.3760244,21.6 L74.4561969,20.96 L74.9372313,20.96 L75.0174038,20.56 L74.5363693,20.56 L74.8570589,18.48 Z M73.9751624,20.48 L73.0130934,20.48 L74.2156796,19.04 L73.9751624,20.48 Z M62.7510244,18.8 L62.7510244,19.28 L63.3924038,19.04 L62.9915417,21.6 L63.5527486,21.6 L64.0337831,18.48 L63.5527486,18.48 L62.7510244,18.8 Z M81.1105072,20.88 L81.0303348,21.52 L81.6717141,21.52 L81.7518865,20.88 L81.1105072,20.88 Z M78.3044727,21.6 L78.945852,21.6 L79.3467141,18.96 L80.5493003,18.96 L80.5493003,18.4 L78.8656796,18.4 C78.7855072,18.4 78.3044727,21.6 78.3044727,21.6 Z M48.8010244,18.4 L47.9993003,18.4 L47.5182658,21.6 L48.1596451,21.6 L48.31999,20.4 L48.5605072,20.4 C49.4424038,20.4 49.9234382,20 49.9234382,19.28 C49.9234382,18.72 49.5225762,18.4 48.8010244,18.4 Z M48.5605072,19.92 L48.31999,19.92 L48.4803348,18.88 L48.720852,18.88 C49.1217141,18.88 49.2820589,19.04 49.2820589,19.36 C49.2820589,19.68 49.0415417,19.92 48.5605072,19.92 Z M39.01999,21.6 L39.6613693,21.6 L40.0622313,18.96 L41.2648175,18.96 L40.8639555,21.6 L41.5053348,21.6 L41.9863693,18.4 L39.5010244,18.4 L39.01999,21.6 Z M44.8725762,18.32 C44.4717141,18.32 44.1510244,18.48 43.8303348,18.72 C43.5096451,19.04 43.2691279,19.6 43.2691279,20.24 C43.2691279,21.12 43.7501624,21.6 44.5518865,21.6 C44.9527486,21.6 45.2734382,21.44 45.5941279,21.2 C45.99499,20.88 46.1553348,20.32 46.1553348,19.68 C46.1553348,18.88 45.6743003,18.32 44.8725762,18.32 Z M45.1130934,20.88 C44.9527486,21.04 44.7924038,21.12 44.5518865,21.12 C44.1510244,21.12 43.9105072,20.8 43.9105072,20.24 C43.9105072,19.68 44.070852,19.28 44.3113693,19.04 C44.4717141,18.88 44.6320589,18.8 44.8725762,18.8 C45.2734382,18.8 45.5139555,19.12 45.5139555,19.68 C45.5139555,20.24 45.3536106,20.64 45.1130934,20.88 Z M56.8182658,20.24 C56.8182658,21.12 57.2993003,21.6 58.1010244,21.6 C58.4217141,21.6 58.6622313,21.52 58.982921,21.36 L58.982921,20.8 C58.7424038,20.96 58.5018865,21.04 58.1811969,21.04 C57.7001624,21.04 57.4596451,20.72 57.4596451,20.16 C57.4596451,19.44 57.8605072,18.8 58.5018865,18.8 C58.7424037,18.8 58.982921,18.88 59.2234382,19.12 L59.3837831,18.56 C59.1432658,18.4 58.8225762,18.24 58.5018865,18.32 C57.5398175,18.32 56.8182658,19.2 56.8182658,20.24 Z M35.3320589,20.24 C35.3320589,21.12 35.8130934,21.6 36.6148175,21.6 C36.9355072,21.6 37.1760244,21.52 37.4967141,21.36 L37.4967141,20.8 C37.2561969,20.96 37.0156796,21.04 36.69499,21.04 C36.2139555,21.04 35.9734382,20.72 35.9734382,20.16 C35.9734382,19.44 36.3743003,18.8 37.0156796,18.8 C37.2561969,18.8 37.4967141,18.88 37.7372313,19.12 L37.8975762,18.56 C37.6570589,18.4 37.3363693,18.24 37.0156796,18.32 C36.0536106,18.32 35.3320589,19.2 35.3320589,20.24 Z M51.2061969,18.88 L52.1682658,18.88 L51.7674038,21.52 L52.4087831,21.52 L52.8096451,18.88 L53.7717141,18.88 L53.7717141,18.4 L51.3665417,18.4 L51.2061969,18.88 Z M15.2889555,3.44 C14.4872313,2.4 13.1243003,1.76 11.2803348,1.52 L11.3605072,1.12 C11.3605072,0.96 11.3605072,0.88 11.3605072,0.8 C11.3605072,0.72 11.2803348,0.72 11.0398175,0.72 L8.23378306,0.72 C7.91309341,0.72 7.75274858,0.88 7.67257616,1.12 L7.59240375,1.52 C6.63033478,1.68 5.74843823,1.92 4.94671409,2.32 C4.14498996,2.64 3.42343823,3.12 2.78205892,3.68 C2.14067961,4.24 1.65964513,4.8 1.17861065,5.52 C0.777748578,6.16 0.457058922,6.88 0.296714095,7.68 C-0.104147974,9.36 0.0561968534,10.72 0.857920991,11.76 C1.57947272,12.8 2.94240375,13.36 4.78636927,13.6 L4.62602444,14.24 C4.54585203,14.56 4.70619685,14.64 4.94671409,14.64 L7.75274858,14.64 C7.99326582,14.64 8.15361065,14.64 8.15361065,14.56 C8.23378306,14.48 8.23378306,14.4 8.31395547,14.24 L8.4743003,13.68 C9.35619685,13.6 10.2380934,13.36 11.11999,13.04 C11.9217141,12.72 12.6432658,12.32 13.2846451,11.76 C14.5674038,10.72 15.5294727,9.28 15.8501624,7.6 C16.3311969,5.84 16.0906796,4.48 15.2889555,3.44 Z M5.42774858,10.8 C5.02688651,10.72 4.70619685,10.56 4.46567961,10.4 C4.22516237,10.24 4.06481754,9.92 3.98464513,9.68 C3.90447272,9.36 3.8243003,9.04 3.8243003,8.72 C3.8243003,8.4 3.90447272,8 3.98464513,7.6 C4.06481754,7.28 4.14498996,6.96 4.30533478,6.64 C4.62602444,5.92 5.10705892,5.36 5.74843823,4.88 C6.1493003,4.72 6.46998996,4.56 6.87085203,4.48 L5.42774858,10.8 Z M12.2424038,7.52 C12.1622313,7.84 12.0820589,8.16 11.9217141,8.48 C11.7613693,8.8 11.6010244,9.12 11.2803348,9.44 C10.7191279,10.08 9.91740375,10.56 9.11567961,10.72 L10.5587831,4.4 C10.9596451,4.48 11.3605072,4.64 11.6010244,4.88 C11.8415417,5.12 12.0018865,5.36 12.1622313,5.68 C12.2424038,6 12.3225762,6.24 12.3225762,6.56 C12.4027486,6.88 12.3225762,7.2 12.2424038,7.52 Z M45.5139555,0.8 C45.5139555,0.72 45.3536106,0.72 45.1130934,0.72 L42.3070589,0.72 C41.9863693,0.72 41.8260244,0.88 41.745852,1.12 L40.6234382,5.84 L36.2139555,5.84 L37.3363693,1.12 C37.3363693,0.96 37.3363693,0.88 37.3363693,0.8 C37.3363693,0.72 37.1760244,0.72 36.9355072,0.72 L34.1294727,0.72 C33.8087831,0.72 33.6484382,0.88 33.5682658,1.12 L30.5217141,14.24 C30.4415417,14.56 30.6018865,14.64 30.9225762,14.64 L33.7286106,14.64 C33.9691279,14.64 34.1294727,14.64 34.1294727,14.56 C34.2096451,14.48 34.2096451,14.4 34.2898175,14.24 L35.4924038,8.96 L39.9018865,8.96 L38.6993003,14.24 C38.6191279,14.48 38.7794727,14.64 39.1001624,14.64 L41.9061969,14.64 C42.1467141,14.64 42.3070589,14.64 42.3070589,14.56 C42.3872313,14.48 42.3872313,14.4 42.4674038,14.24 L45.5139555,1.12 C45.5941279,0.96 45.5941279,0.88 45.5139555,0.8 Z M70.7682658,0.72 L64.9156796,0.72 C64.1941279,0.72 63.5527486,0.8 63.0717141,1.04 C62.5906796,1.2 62.1096451,1.52 61.7087831,1.92 C61.307921,2.24 60.9872313,2.64 60.7467141,3.12 C60.5061969,3.6 60.345852,4 60.1855072,4.56 L58.7424038,10.96 C58.6622313,11.36 58.5820589,11.84 58.5820589,12.32 C58.5820589,12.72 58.6622313,13.2 58.9027486,13.52 C59.0630934,13.92 59.4639555,14.16 59.8648175,14.4 C60.345852,14.64 60.9070589,14.72 61.7087831,14.72 L67.8820589,14.72 C68.1225762,14.72 68.282921,14.56 68.3630934,14.24 L68.9243003,12 C69.0044727,11.76 69.0044727,11.6 68.9243003,11.6 C68.9243003,11.52 68.7639555,11.52 68.6036106,11.52 L63.5527486,11.52 C63.3924038,11.52 63.2320589,11.52 63.0717141,11.52 C62.9113693,11.52 62.8311969,11.44 62.7510244,11.36 C62.670852,11.2 62.5906796,11.12 62.5906796,10.96 C62.5906796,10.8 62.5906796,10.64 62.670852,10.4 L62.9915417,8.88 L68.3630934,8.88 C68.6036106,8.88 68.7639555,8.72 68.8441279,8.4 L69.24499,6.32 C69.3251624,6.08 69.3251624,5.92 69.24499,5.92 C69.24499,5.84 69.0846451,5.84 68.9243003,5.84 L63.5527486,5.84 L63.7130934,5.04 C63.7130934,4.88 63.7932658,4.8 63.8734382,4.64 C63.9536106,4.48 64.0337831,4.4 64.1139555,4.32 C64.1941279,4.24 64.3544727,4.16 64.5148175,4.08 C64.8355072,3.92 65.0760244,3.92 65.3165417,3.92 L70.0467141,3.92 C70.2070589,3.92 70.2872313,3.92 70.3674038,3.84 C70.4475762,3.76 70.5277486,3.68 70.5277486,3.52 L71.0889555,1.28 C71.1691279,1.04 71.1691279,0.88 71.0889555,0.88 C71.0087831,0.72 70.9286106,0.72 70.7682658,0.72 Z M83.2751624,0.8 C83.19499,0.72 83.1148175,0.72 82.9544727,0.72 L72.4518865,0.72 C72.2915417,0.72 72.2113693,0.72 72.1311969,0.8 C72.0510244,0.88 71.970852,0.96 71.970852,1.2 L71.4096451,3.44 C71.3294727,3.76 71.4096451,3.92 71.7303348,3.92 L75.0174037,3.92 L72.6122313,14.24 C72.5320589,14.48 72.6924037,14.64 72.932921,14.64 L75.7389555,14.64 C75.9794727,14.64 76.1398175,14.64 76.1398175,14.56 C76.21999,14.48 76.21999,14.4 76.3001624,14.24 L78.7053348,3.92 L82.0725762,3.92 C82.3130934,3.92 82.5536106,3.76 82.6337831,3.44 L83.1148175,1.2 C83.3553348,0.96 83.3553348,0.8 83.2751624,0.8 Z M58.2613693,0.8 C58.1811969,0.72 58.1010244,0.72 57.9406796,0.72 L49.2820589,0.72 C48.720852,0.72 48.31999,0.8 48.1596451,1.04 C47.9191279,1.28 47.7587831,1.6 47.6786106,2 L45.032921,13.28 C44.9527486,13.76 44.9527486,14.08 45.032921,14.32 C45.1130934,14.56 45.4337831,14.64 45.99499,14.64 L51.2863693,14.64 C52.007921,14.64 52.6493003,14.56 53.2906796,14.32 C53.9320589,14.08 54.4932658,13.76 55.0544727,13.36 C55.6156796,12.96 56.0165417,12.48 56.4174038,11.92 C56.8182658,11.36 57.0587831,10.8 57.2191279,10.16 C57.2993003,9.92 57.2993003,9.68 57.3794727,9.36 C57.4596451,9.04 57.4596451,8.72 57.3794727,8.4 C57.3794727,8.08 57.2993003,7.68 57.1389555,7.36 C56.9786106,7.04 56.8182658,6.72 56.4975762,6.48 C56.1768865,6.24 55.7760244,6 55.2148175,5.84 C54.6536106,5.68 54.0122313,5.6 53.1303348,5.6 L50.5648175,5.6 C50.5648175,5.44 50.64499,5.28 50.64499,5.2 C50.64499,5.12 50.7251624,4.96 50.7251624,4.88 L50.8053348,4.48 C50.8053348,4.32 50.8855072,4.16 50.9656796,3.92 L57.1389555,3.92 C57.2993003,3.92 57.3794727,3.92 57.4596451,3.84 C57.5398175,3.76 57.61999,3.68 57.61999,3.52 L58.1811969,1.28 C58.2613693,0.96 58.2613693,0.8 58.2613693,0.8 Z M52.3286106,8.72 C52.7294727,8.72 53.0501624,8.88 53.2105072,9.12 C53.370852,9.36 53.4510244,9.68 53.370852,10.08 C53.370852,10.24 53.2906796,10.4 53.2105072,10.56 C53.0501624,10.88 52.7294727,11.2 52.4087831,11.36 C52.1682658,11.44 51.9277486,11.52 51.6872313,11.52 L49.2820589,11.52 L49.9234382,8.8 C49.8432658,8.72 52.3286106,8.72 52.3286106,8.72 Z M30.3613693,4.96 C30.2811969,4.08 30.120852,3.36 29.71999,2.72 C29.3191279,2.08 28.757921,1.6 28.1165417,1.28 C27.39499,0.88 26.5130934,0.72 25.3906796,0.72 C24.3484382,0.72 23.3863693,0.88 22.5846451,1.2 C21.7027486,1.52 20.9811969,2 20.2596451,2.64 C19.6182658,3.28 18.9768865,4 18.5760244,4.96 C18.09499,5.84 17.6941279,6.8 17.4536106,7.92 C17.2130934,9.04 17.0527486,10 17.132921,10.96 C17.132921,11.84 17.3734382,12.64 17.6941279,13.2 C18.09499,13.84 18.5760244,14.32 19.2975762,14.64 C20.0191279,14.96 20.9010244,15.12 21.9432658,15.12 C23.0656796,15.12 24.107921,14.96 24.9898175,14.64 C25.8717141,14.32 26.6734382,13.84 27.3148175,13.2 C27.9561969,12.56 28.5174038,11.84 28.9984382,10.96 C29.4794727,10.08 29.8001624,9.04 30.0406796,7.92 C30.2811969,6.8 30.4415417,5.84 30.3613693,4.96 Z M26.3527486,6.4 C26.2725762,6.88 26.2725762,7.36 26.1122313,7.92 C26.0320589,8.4 25.8717141,8.88 25.6311969,9.36 C25.470852,9.76 25.2303348,10.24 24.9898175,10.56 C24.7493003,10.88 24.4286106,11.2 24.107921,11.36 C23.7872313,11.6 23.3863693,11.68 22.9053348,11.68 C22.4243003,11.68 22.1036106,11.6 21.8630934,11.44 C21.6225762,11.28 21.3820589,10.96 21.3018865,10.64 C21.2217141,10.32 21.1415417,9.92 21.2217141,9.36 C21.2217141,8.88 21.3820589,8.32 21.4622313,7.68 C21.5424038,7.2 21.7027486,6.72 21.9432658,6.24 C22.1036106,5.84 22.3441279,5.44 22.6648175,5.04 C22.9053348,4.72 23.2260244,4.48 23.5467141,4.24 C23.8674038,4.08 24.2682658,3.92 24.6691279,3.92 C25.1501624,3.92 25.470852,4 25.7113693,4.24 C25.9518865,4.48 26.1122313,4.72 26.2725762,5.04 C26.3527486,5.52 26.3527486,5.92 26.3527486,6.4 Z" id="svg_1"></path>
            </g>
        </g>
    </g>
</svg>