<?xml version="1.0" encoding="UTF-8"?>
<svg width="52px" height="16px" viewBox="0 0 52 16" version="1.1" xmlns="http://www.w3.org/2000/svg" xmlns:xlink="http://www.w3.org/1999/xlink">
    <!-- Generator: Sketch 48.2 (47327) - http://www.bohemiancoding.com/sketch -->
    <title>VISA</title>
    <desc>Created with Sketch.</desc>
    <defs></defs>
    <g id="bookmaker" stroke="none" stroke-width="1" fill="none" fill-rule="evenodd" transform="translate(-998.000000, -729.000000)">
        <rect id="Rectangle-24" stroke-opacity="0.06" stroke="#000000" x="984.5" y="702.5" width="255" height="201"></rect>
        <g id="VISA" transform="translate(998.000000, 729.000000)" fill="#27386D">
            <path d="M18.3053859,15.7681159 L20.961688,0.260869565 L25.1771238,0.260869565 L22.5208218,15.7681159 L18.3053859,15.7681159 Z M37.7945586,0.637681159 C36.9861188,0.347826087 35.6579678,0 34.0410883,0 C29.8545253,0 26.9383676,2.08695652 26.9094947,5.10144928 C26.9094947,7.33333333 29.0172127,8.57971014 30.6052193,9.33333333 C32.2509717,10.0869565 32.7995558,10.5797101 32.770683,11.2463768 C32.770683,12.2898551 31.4714048,12.7826087 30.2587451,12.7826087 C28.5841199,12.7826087 27.6890616,12.5507246 26.3031649,11.9710145 L25.7545808,11.7101449 L25.1771238,15.1594203 C26.1588007,15.6231884 27.9489173,15.9710145 29.8545253,16 C34.3009439,16 37.1593559,13.942029 37.1882288,10.6956522 C37.2171016,8.95652174 36.0910605,7.5942029 33.6657413,6.49275362 C32.193226,5.76811594 31.2981677,5.30434783 31.2981677,4.57971014 C31.2981677,3.91304348 32.0488617,3.2173913 33.6946141,3.2173913 C35.0805108,3.2173913 36.0910605,3.50724638 36.8417546,3.82608696 L37.2459745,4 L37.7945586,0.637681159 Z M48.6218767,0.289855072 L45.3592449,0.289855072 C44.3486952,0.289855072 43.5980011,0.550724638 43.1360355,1.56521739 L36.8995003,15.7971014 L41.3170461,15.7971014 C41.3170461,15.7971014 42.0388673,13.8550725 42.2121044,13.4492754 C42.7029428,13.4492754 46.9761244,13.4492754 47.5824542,13.4492754 C47.7268184,14 48.1021655,15.7971014 48.1021655,15.7971014 L52,15.7971014 L48.6218767,0.289855072 Z M43.424764,10.2608696 C43.7423654,9.39130435 45.0993892,5.94202899 45.0993892,5.94202899 C45.0416435,6 45.4458634,5.04347826 45.6479733,4.46376812 L45.9367018,5.79710145 C45.9367018,5.79710145 46.7451416,9.50724638 46.9183787,10.2608696 L43.424764,10.2608696 Z M14.7828984,0.289855072 L10.6540811,10.8405797 L10.2209883,8.69565217 L8.74847307,1.5942029 C8.48861743,0.608695652 7.76679622,0.289855072 6.84286507,0.260869565 L0.0288728484,0.260869565 L0,0.608695652 C1.64575236,1.01449275 3.11826763,1.5942029 4.41754581,2.28985507 L8.1710161,15.7681159 L12.6174348,15.7681159 L19.2581899,0.289855072 L14.7828984,0.289855072 Z" id="Shape"></path>
        </g>
    </g>
</svg>