<?xml version="1.0" encoding="UTF-8"?>
<svg width="52px" height="12px" viewBox="0 0 52 12" version="1.1" xmlns="http://www.w3.org/2000/svg" xmlns:xlink="http://www.w3.org/1999/xlink">
    <!-- Generator: Sketch 48.2 (47327) - http://www.bohemiancoding.com/sketch -->
    <title>Shape</title>
    <desc>Created with Sketch.</desc>
    <defs></defs>
    <g id="bookmaker" stroke="none" stroke-width="1" fill="none" fill-rule="evenodd" transform="translate(-1000.000000, -865.000000)">
        <rect id="Rectangle-24" stroke-opacity="0.06" stroke="#000000" x="984.5" y="702.5" width="255" height="201"></rect>
        <path d="M1050.67797,868.512195 C1050.53107,868.512195 1050.38418,868.658537 1050.38418,868.804878 L1050.38418,871.878049 L1046.56497,871.878049 L1046.56497,868.804878 C1046.56497,868.658537 1046.41808,868.512195 1046.27119,868.512195 L1045.24294,868.512195 C1045.09605,868.512195 1044.94915,868.658537 1044.94915,868.804878 L1044.94915,876.560976 C1044.94915,876.707317 1045.09605,876.853659 1045.24294,876.853659 L1046.27119,876.853659 C1046.41808,876.853659 1046.56497,876.707317 1046.56497,876.560976 L1046.56497,873.341463 L1050.38418,873.341463 L1050.38418,876.560976 C1050.38418,876.707317 1050.53107,876.853659 1050.67797,876.853659 L1051.70621,876.853659 C1051.85311,876.853659 1052,876.707317 1052,876.560976 L1052,868.804878 C1052,868.658537 1051.85311,868.512195 1051.70621,868.512195 L1050.67797,868.512195 Z M1042.59887,865 C1042.74576,865 1042.89266,865.146341 1042.89266,865.292683 L1042.89266,866.317073 C1042.89266,866.463415 1042.74576,866.609756 1042.59887,866.609756 L1036.13559,866.609756 C1035.84181,866.609756 1035.69492,866.463415 1035.69492,866.317073 L1035.69492,865.292683 C1035.69492,865.146341 1035.84181,865 1036.13559,865 L1042.59887,865 Z M1000.29379,865 C1000.14689,865 1000,865.146341 1000,865.292683 L1000,873.341463 C1000,875.536585 1000.73446,876.853659 1003.37853,876.853659 L1003.67232,876.853659 C1007.49153,876.853659 1008.0791,874.365854 1008.0791,873.04878 C1008.0791,871.878049 1007.63842,869.243902 1003.81921,869.243902 L1001.76271,869.243902 L1001.76271,866.609756 L1006.61017,866.609756 C1006.90395,866.609756 1007.05085,866.463415 1007.05085,866.317073 L1007.05085,865.292683 C1007.05085,865.146341 1006.90395,865 1006.61017,865 L1000.29379,865 Z M1003.9661,870.707317 C1005.43503,870.707317 1006.31638,871.585366 1006.31638,873.04878 C1006.31638,874.512195 1005.43503,875.243902 1003.9661,875.243902 L1003.37853,875.243902 C1002.20339,875.243902 1001.76271,874.804878 1001.76271,873.487805 L1001.76271,870.707317 L1003.9661,870.707317 Z M1028.20339,868.658537 C1028.0565,868.658537 1028.0565,868.804878 1028.0565,868.95122 L1028.0565,869.829268 C1028.0565,869.97561 1028.0565,869.97561 1028.20339,870.121951 C1028.20339,870.121951 1028.35028,870.121951 1028.35028,870.121951 C1028.93785,869.97561 1029.67232,869.682927 1030.70056,869.682927 C1032.0226,869.682927 1032.31638,870.121951 1032.31638,871.146341 L1032.31638,871.292683 L1030.40678,871.439024 C1027.46893,871.585366 1027.32203,873.487805 1027.32203,874.219512 C1027.32203,875.97561 1028.20339,877 1030.55367,877 C1031.14124,877 1032.0226,876.853659 1032.61017,876.414634 L1032.75706,876.707317 C1032.90395,876.853659 1032.90395,876.853659 1033.05085,876.853659 L1033.78531,876.853659 C1033.9322,876.853659 1034.0791,876.707317 1034.0791,876.560976 L1034.0791,871.146341 C1034.0791,869.097561 1032.90395,868.219512 1030.70056,868.219512 C1029.81921,868.219512 1028.79096,868.365854 1028.20339,868.658537 Z M1029.08475,874.219512 C1029.08475,873.487805 1029.23164,872.902439 1030.40678,872.902439 L1032.31638,872.609756 L1032.31638,874.95122 C1031.72881,875.243902 1031.28814,875.390244 1030.55367,875.390244 C1029.81921,875.390244 1029.08475,875.243902 1029.08475,874.219512 Z M1015.27684,876.707317 C1015.27684,876.853659 1015.42373,876.853659 1015.57062,876.853659 L1016.30508,876.853659 C1016.45198,876.853659 1016.59887,876.707317 1016.59887,876.560976 L1016.59887,868.804878 C1016.59887,868.658537 1016.45198,868.512195 1016.30508,868.512195 L1015.27684,868.512195 C1014.98305,868.512195 1014.98305,868.658537 1014.98305,868.804878 L1014.98305,874.219512 C1014.39548,874.804878 1013.36723,875.390244 1012.63277,875.390244 C1011.60452,875.390244 1011.01695,874.804878 1011.01695,873.341463 L1011.01695,868.804878 C1011.01695,868.658537 1010.87006,868.512195 1010.72316,868.512195 L1009.69492,868.512195 C1009.54802,868.512195 1009.40113,868.658537 1009.40113,868.804878 L1009.40113,873.926829 C1009.40113,875.682927 1010.42938,877 1012.33898,877 C1013.51412,877 1014.54237,876.414634 1015.12994,875.97561 L1015.27684,876.707317 Z M1041.57062,876.707317 C1041.71751,876.853659 1041.71751,876.853659 1041.86441,876.853659 L1042.59887,876.853659 C1042.74576,876.853659 1042.89266,876.707317 1042.89266,876.560976 L1042.89266,868.804878 C1042.89266,868.658537 1042.89266,868.512195 1042.59887,868.512195 L1041.57062,868.512195 C1041.42373,868.512195 1041.27684,868.658537 1041.27684,868.804878 L1041.27684,874.219512 C1040.68927,874.804878 1039.66102,875.390244 1038.92655,875.390244 C1037.89831,875.390244 1037.45763,874.804878 1037.45763,873.341463 L1037.45763,868.804878 C1037.45763,868.658537 1037.31073,868.512195 1037.01695,868.512195 L1036.13559,868.512195 C1035.84181,868.512195 1035.69492,868.658537 1035.69492,868.804878 L1035.69492,873.926829 C1035.69492,875.682927 1036.72316,877 1038.63277,877 C1039.9548,877 1040.98305,876.414634 1041.42373,875.97561 L1041.57062,876.707317 Z M1019.24294,873.926829 C1019.09605,875.097561 1018.80226,875.390244 1017.9209,875.390244 C1017.77401,875.390244 1017.62712,875.536585 1017.62712,875.829268 L1017.62712,876.560976 C1017.62712,876.853659 1017.77401,877 1017.9209,877 C1019.68362,877 1020.71186,875.97561 1020.85876,873.780488 L1021.00565,871.878049 C1021.15254,870.414634 1021.44633,869.97561 1022.76836,869.97561 L1024.0904,869.97561 L1024.0904,876.560976 C1024.0904,876.707317 1024.23729,876.853659 1024.38418,876.853659 L1025.41243,876.853659 C1025.55932,876.853659 1025.85311,876.707317 1025.85311,876.560976 L1025.85311,868.804878 C1025.85311,868.658537 1025.55932,868.512195 1025.41243,868.512195 L1022.62147,868.512195 C1020.27119,868.512195 1019.68362,869.829268 1019.38983,871.731707 L1019.24294,873.926829 Z" id="Shape" fill="#000000" fill-rule="nonzero"></path>
    </g>
</svg>