<?xml version="1.0" encoding="UTF-8"?>
<svg width="54px" height="20px" viewBox="0 0 54 20" version="1.1" xmlns="http://www.w3.org/2000/svg" xmlns:xlink="http://www.w3.org/1999/xlink">
    <!-- Generator: Sketch 48.2 (47327) - http://www.bohemiancoding.com/sketch -->
    <title>Monetaru</title>
    <desc>Created with Sketch.</desc>
    <defs>
        <linearGradient x1="50.0887097%" y1="0%" x2="50.0887097%" y2="100.087212%" id="linearGradient-1">
            <stop stop-color="#D0A62E" offset="0%"></stop>
            <stop stop-color="#F6DE02" offset="54.1176%"></stop>
            <stop stop-color="#B57F05" offset="100%"></stop>
        </linearGradient>
        <linearGradient x1="50.0021012%" y1="90.6896296%" x2="50.0021012%" y2="17.0488889%" id="linearGradient-2">
            <stop stop-color="#3FB6DE" offset="0%"></stop>
            <stop stop-color="#108ACB" offset="100%"></stop>
        </linearGradient>
        <linearGradient x1="50%" y1="94.0004%" x2="50%" y2="5.99962%" id="linearGradient-3">
            <stop stop-color="#FFF301" offset="0%"></stop>
            <stop stop-color="#DAA904" offset="100%"></stop>
        </linearGradient>
        <linearGradient x1="50%" y1="93.9977%" x2="50%" y2="6.00232%" id="linearGradient-4">
            <stop stop-color="#FFF301" offset="0%"></stop>
            <stop stop-color="#DAA904" offset="100%"></stop>
        </linearGradient>
        <linearGradient x1="50%" y1="94.0006%" x2="50%" y2="6.0053%" id="linearGradient-5">
            <stop stop-color="#FFF301" offset="0%"></stop>
            <stop stop-color="#DAA904" offset="100%"></stop>
        </linearGradient>
        <linearGradient x1="49.5661017%" y1="92.2714286%" x2="49.5661017%" y2="6.35%" id="linearGradient-6">
            <stop stop-color="#FFF301" offset="0%"></stop>
            <stop stop-color="#DAA904" offset="100%"></stop>
        </linearGradient>
        <linearGradient x1="50%" y1="94.0009%" x2="50%" y2="5.99908%" id="linearGradient-7">
            <stop stop-color="#FFF301" offset="0%"></stop>
            <stop stop-color="#DAA904" offset="100%"></stop>
        </linearGradient>
        <linearGradient x1="50%" y1="94.0049%" x2="50%" y2="6.00418%" id="linearGradient-8">
            <stop stop-color="#FFF301" offset="0%"></stop>
            <stop stop-color="#DAA904" offset="100%"></stop>
        </linearGradient>
        <linearGradient x1="50%" y1="93.9937%" x2="50%" y2="6.00626%" id="linearGradient-9">
            <stop stop-color="#FFF301" offset="0%"></stop>
            <stop stop-color="#DAA904" offset="100%"></stop>
        </linearGradient>
        <linearGradient x1="50%" y1="94.002%" x2="50%" y2="6.01787%" id="linearGradient-10">
            <stop stop-color="#FFF301" offset="0%"></stop>
            <stop stop-color="#DAA904" offset="100%"></stop>
        </linearGradient>
        <linearGradient x1="49.5644068%" y1="91.8882353%" x2="49.5644068%" y2="4.41176471%" id="linearGradient-11">
            <stop stop-color="#FFF301" offset="0%"></stop>
            <stop stop-color="#DAA904" offset="100%"></stop>
        </linearGradient>
        <linearGradient x1="49.5661017%" y1="92.8214286%" x2="49.5661017%" y2="6.41428571%" id="linearGradient-12">
            <stop stop-color="#FFF301" offset="0%"></stop>
            <stop stop-color="#DAA904" offset="100%"></stop>
        </linearGradient>
    </defs>
    <g id="bookmaker" stroke="none" stroke-width="1" fill="none" fill-rule="evenodd" transform="translate(-1084.000000, -793.000000)">
        <rect id="Rectangle-24" stroke-opacity="0.06" stroke="#000000" x="984.5" y="702.5" width="255" height="201"></rect>
        <g id="Monetaru" transform="translate(1084.000000, 793.000000)">
            <polygon id="Shape" fill="url(#linearGradient-1)" points="38.6614786 0 41.2669261 0 41.2669261 20 38.6614786 20"></polygon>
            <path d="M1.092607,11.3626834 C4.03424125,9.8951782 2.89961089,12.1593291 3.19377432,14.6331237 L4.24435798,14.6331237 L4.24435798,11.3207547 C4.79066148,11.1111111 6.21945525,10.3563941 6.2614786,11.572327 C6.2614786,12.327044 6.17743191,14.0041929 6.30350195,14.6331237 L7.3540856,14.6331237 C7.4381323,14.2138365 7.3540856,13.0398323 7.3540856,12.5366876 C7.3540856,11.9496855 7.4381323,11.1111111 7.18599222,10.6498952 C6.93385214,10.230608 6.21945525,10.1048218 5.54708171,10.2725367 C5.00077821,10.3983229 4.5385214,10.6498952 4.11828794,10.9014675 C3.86614786,10.3983229 3.40389105,10.1048218 2.60544747,10.230608 C2.01712062,10.3144654 1.55486381,10.6498952 1.092607,10.8595388 L1.092607,10.2725367 L0,10.3144654 L0,14.6331237 L1.092607,14.6331237 L1.092607,11.3626834 Z M21.8101167,12.1593291 C21.6840467,11.1530398 22.2723735,10.8595388 23.1968872,10.8595388 C24.0793774,10.8595388 24.6256809,11.1530398 24.4996109,12.1593291 L21.8101167,12.1593291 Z M20.6754864,12.0754717 L20.6754864,13.1656184 C20.6754864,15.1362683 24.0793774,14.8008386 25.4241245,14.4234801 L25.3400778,13.7945493 C24.1634241,13.7945493 21.6840467,14.884696 21.8101167,12.7044025 L25.5501946,12.7044025 C25.5501946,11.9077568 25.5922179,11.278826 25.1719844,10.8176101 C24.8357977,10.4821803 24.1214008,10.230608 23.4490272,10.230608 C21.9782101,10.1467505 20.6754864,10.5660377 20.6754864,12.0754717 Z M34.1649805,13.7945493 C33.7027237,13.9203354 33.3245136,14.0880503 32.8202335,14.0880503 C32.3159533,14.0880503 31.8536965,14.0041929 31.7696498,13.5429769 C31.6015564,12.5786164 33.4085603,12.78826 34.1649805,12.78826 L34.1649805,13.7945493 Z M31.0552529,11.0691824 C31.6856031,10.9853249 32.2319066,10.8176101 32.9042802,10.8176101 C34.1649805,10.8176101 34.1649805,11.1949686 34.1229572,12.2012579 C32.8622568,12.1174004 30.6350195,11.9496855 30.5929961,13.3752621 C30.5929961,14.4234801 31.433463,14.7589099 32.4420233,14.7589099 C33.2404669,14.7589099 33.492607,14.591195 34.1649805,14.3815514 L34.1649805,14.6331237 L35.2575875,14.6331237 L35.2575875,13.3752621 C35.2575875,11.5303983 35.551751,10.3983229 33.6607004,10.230608 C32.9042802,10.1467505 31.5175097,10.230608 30.9291829,10.4821803 L31.0552529,11.0691824 Z M10.4217899,10.9014675 C11.1361868,10.7337526 12.4809339,10.7337526 12.5229572,11.9077568 C12.5229572,13.0398323 12.6490272,13.836478 11.5143969,14.0461216 C10.5898833,14.2557652 9.58132296,14.0041929 9.49727626,13.081761 C9.45525292,12.7044025 9.45525292,11.8658281 9.53929961,11.572327 C9.707393,11.1530398 10.0015564,10.9853249 10.4217899,10.9014675 Z M13.6155642,13.1656184 C13.7416342,12.4528302 13.6996109,11.5303983 13.3634241,11.0691824 C12.4389105,9.81132075 8.69883268,9.76939203 8.40466926,11.6981132 C8.27859922,12.4528302 8.32062257,13.3752621 8.65680934,13.8784067 C9.45525292,15.0524109 13.3214008,15.2201258 13.6155642,13.1656184 Z M49.0832685,12.0754717 C49.0832685,13.3333333 48.8311284,14.7169811 50.6381323,14.7169811 C51.7727626,14.7169811 52.0249027,14.5073375 52.907393,14.2138365 L52.907393,14.6331237 L54,14.6331237 L54,10.2725367 L52.907393,10.2725367 L52.907393,13.5849057 C52.6552529,13.7106918 52.4871595,13.836478 52.1509728,13.9203354 C51.3105058,14.1719078 50.2178988,14.2557652 50.2178988,13.081761 C50.2178988,12.2431866 50.2178988,11.0691824 50.1758755,10.3144654 C50.0077821,10.2725367 49.3354086,10.230608 49.0832685,10.3144654 L49.0832685,12.0754717 Z M15.7587549,10.6918239 L15.8007782,10.2725367 L14.6661479,10.2725367 L14.6661479,14.6331237 L15.7587549,14.6331237 L15.7587549,11.3207547 C16.2210117,11.1111111 16.4731518,10.9433962 17.0614786,10.8595388 C19.1206226,10.6079665 18.3642023,12.327044 18.4902724,14.6331237 L19.5828794,14.6331237 C19.6249027,13.9622642 19.5828794,13.1656184 19.5828794,12.4947589 C19.5828794,11.0691824 19.6669261,10.0628931 17.5237354,10.230608 C16.7673152,10.2725367 16.3891051,10.524109 15.7587549,10.6918239 Z M26.1385214,10.9014675 L27.063035,10.9014675 C27.0210117,11.6561845 26.9789883,12.8721174 27.063035,13.5849057 C27.1891051,15.0524109 29.122179,14.7589099 30.1307393,14.5492662 L29.9626459,13.9622642 C29.1642023,14.0880503 28.155642,14.4234801 28.155642,13.1656184 L28.155642,10.9014675 L30.0046693,10.9014675 L29.9626459,10.2725367 L28.155642,10.2725367 L28.155642,9.09853249 L27.063035,9.18238994 C26.9789883,9.43396226 27.0210117,9.97903564 27.0210117,10.2725367 L26.1385214,10.2725367 L26.1385214,10.4821803 L26.1385214,10.9014675 Z M46.0575875,14.6331237 C46.1416342,14.0041929 45.9315175,12.2012579 46.1836576,11.7819706 C46.351751,11.5303983 46.6879377,11.278826 46.9821012,11.1111111 C47.4023346,10.9433962 47.7385214,10.9853249 48.2848249,10.9853249 L48.1587549,10.1886792 C47.1501946,10.1886792 46.5198444,10.3983229 46.0996109,10.9853249 L46.0575875,10.2725367 L44.9649805,10.2725367 L45.0070039,14.6331237 L46.0575875,14.6331237 Z" id="Shape" fill="url(#linearGradient-2)"></path>
            <path d="M38.7455253,9.01467505 C39.5439689,9.01467505 40.3844358,9.01467505 41.2249027,9.01467505 C40.9727626,8.80503145 40.9727626,8.55345912 41.2249027,8.30188679 C40.3844358,8.30188679 39.5439689,8.30188679 38.7455253,8.30188679 C38.955642,8.59538784 38.955642,8.80503145 38.7455253,9.01467505 Z" id="Shape" fill="url(#linearGradient-3)"></path>
            <path d="M38.7455253,7.54716981 C39.5439689,7.54716981 40.3844358,7.54716981 41.2249027,7.54716981 C40.9727626,7.33752621 40.9727626,7.1278826 41.2249027,6.91823899 C40.3844358,6.91823899 39.5439689,6.91823899 38.7455253,6.91823899 C38.955642,7.16981132 38.9136187,7.37945493 38.7455253,7.54716981 Z" id="Shape" fill="url(#linearGradient-4)"></path>
            <path d="M38.7455253,6.28930818 C39.5439689,6.28930818 40.3844358,6.28930818 41.2249027,6.28930818 C41.014786,6.07966457 41.014786,5.87002096 41.2249027,5.70230608 C40.3844358,5.70230608 39.5439689,5.70230608 38.7455253,5.70230608 C38.9136187,5.91194969 38.9136187,6.12159329 38.7455253,6.28930818 Z" id="Shape" fill="url(#linearGradient-5)"></path>
            <path d="M38.7455253,4.98951782 C39.5439689,4.98951782 40.3844358,4.98951782 41.2249027,4.98951782 C41.014786,4.77987421 41.0568093,4.57023061 41.2249027,4.40251572 C40.3844358,4.40251572 39.5439689,4.40251572 38.7455253,4.40251572 C38.9136187,4.61215933 38.8715953,4.82180294 38.7455253,4.98951782 Z" id="Shape" fill="url(#linearGradient-6)"></path>
            <path d="M38.7455253,3.81551363 C39.5439689,3.81551363 40.3844358,3.81551363 41.2249027,3.81551363 C41.0568093,3.64779874 41.0568093,3.48008386 41.2249027,3.31236897 C40.3844358,3.31236897 39.5439689,3.31236897 38.7455253,3.31236897 C38.8715953,3.48008386 38.8715953,3.64779874 38.7455253,3.81551363 Z" id="Shape" fill="url(#linearGradient-7)"></path>
            <path d="M38.7455253,2.7672956 C39.5439689,2.7672956 40.3844358,2.7672956 41.2249027,2.7672956 C41.0568093,2.59958071 41.0988327,2.47379455 41.2249027,2.30607966 C40.3844358,2.30607966 39.5439689,2.30607966 38.7455253,2.30607966 C38.8715953,2.47379455 38.8715953,2.64150943 38.7455253,2.7672956 Z" id="Shape" fill="url(#linearGradient-8)"></path>
            <path d="M38.7455253,1.88679245 C39.5439689,1.88679245 40.3844358,1.88679245 41.2249027,1.88679245 C41.0988327,1.71907757 41.0988327,1.5932914 41.2249027,1.46750524 C40.3844358,1.46750524 39.5439689,1.46750524 38.7455253,1.46750524 C38.829572,1.5932914 38.829572,1.76100629 38.7455253,1.88679245 Z" id="Shape" fill="url(#linearGradient-7)"></path>
            <path d="M38.7455253,1.09014675 C39.5439689,1.09014675 40.3844358,1.09014675 41.2249027,1.09014675 C41.0988327,1.00628931 41.140856,0.880503145 41.2249027,0.796645702 C40.3844358,0.796645702 39.5439689,0.796645702 38.7455253,0.796645702 C38.7875486,0.880503145 38.829572,1.00628931 38.7455253,1.09014675 Z" id="Shape" fill="url(#linearGradient-9)"></path>
            <path d="M38.7455253,0.545073375 C39.5439689,0.545073375 40.3844358,0.545073375 41.2249027,0.545073375 C41.140856,0.503144654 41.140856,0.419287212 41.2249027,0.335429769 C40.3844358,0.335429769 39.5439689,0.335429769 38.7455253,0.335429769 C38.7875486,0.377358491 38.829572,0.461215933 38.7455253,0.545073375 Z" id="Shape" fill="url(#linearGradient-10)"></path>
            <path d="M38.7455253,0.167714885 C39.5439689,0.167714885 40.3844358,0.167714885 41.2249027,0.167714885 C41.140856,0.125786164 41.1828794,0.0838574423 41.2249027,0.0419287212 C40.3844358,0.0419287212 39.5439689,0.0419287212 38.7455253,0.0419287212 C38.7455253,0.0838574423 38.7875486,0.125786164 38.7455253,0.167714885 Z" id="Shape" fill="url(#linearGradient-3)"></path>
            <path d="M38.7455253,10.4821803 C39.5439689,10.4821803 40.3844358,10.4821803 41.2249027,10.4821803 C40.9727626,10.230608 40.9727626,9.97903564 41.2249027,9.76939203 C40.3844358,9.76939203 39.5439689,9.76939203 38.7455253,9.76939203 C38.955642,10.0209644 38.955642,10.2725367 38.7455253,10.4821803 Z" id="Shape" fill="url(#linearGradient-11)"></path>
            <path d="M38.7455253,11.1111111 C39.5439689,11.1111111 40.3844358,11.1111111 41.2249027,11.1111111 C40.9727626,11.3626834 40.9727626,11.6142558 41.2249027,11.8238994 C40.3844358,11.8238994 39.5439689,11.8238994 38.7455253,11.8238994 C38.955642,11.572327 38.955642,11.3207547 38.7455253,11.1111111 Z" id="Shape" fill="url(#linearGradient-3)"></path>
            <path d="M38.7455253,12.5786164 C39.5439689,12.5786164 40.3844358,12.5786164 41.2249027,12.5786164 C40.9727626,12.78826 40.9727626,12.9979036 41.2249027,13.2075472 C40.3844358,13.2075472 39.5439689,13.2075472 38.7455253,13.2075472 C38.955642,12.9559748 38.9136187,12.7463312 38.7455253,12.5786164 Z" id="Shape" fill="url(#linearGradient-4)"></path>
            <path d="M38.7455253,13.836478 C39.5439689,13.836478 40.3844358,13.836478 41.2249027,13.836478 C41.014786,14.0461216 41.014786,14.2138365 41.2249027,14.4234801 C40.3844358,14.4234801 39.5439689,14.4234801 38.7455253,14.4234801 C38.9136187,14.1719078 38.9136187,14.0041929 38.7455253,13.836478 Z" id="Shape" fill="url(#linearGradient-5)"></path>
            <path d="M38.7455253,15.0943396 C39.5439689,15.0943396 40.3844358,15.0943396 41.2249027,15.0943396 C41.014786,15.3039832 41.0568093,15.4716981 41.2249027,15.6813417 C40.3844358,15.6813417 39.5439689,15.6813417 38.7455253,15.6813417 C38.9136187,15.4716981 38.8715953,15.2620545 38.7455253,15.0943396 Z" id="Shape" fill="url(#linearGradient-12)"></path>
            <path d="M38.7455253,16.2264151 C39.5439689,16.2264151 40.3844358,16.2264151 41.2249027,16.2264151 C41.0568093,16.4360587 41.0568093,16.6037736 41.2249027,16.7714885 C40.3844358,16.7714885 39.5439689,16.7714885 38.7455253,16.7714885 C38.8715953,16.5618449 38.8715953,16.39413 38.7455253,16.2264151 Z" id="Shape" fill="url(#linearGradient-7)"></path>
            <path d="M38.7455253,17.2746331 C39.5439689,17.2746331 40.3844358,17.2746331 41.2249027,17.2746331 C41.0568093,17.442348 41.0988327,17.5681342 41.2249027,17.7358491 C40.3844358,17.7358491 39.5439689,17.7358491 38.7455253,17.7358491 C38.8715953,17.5681342 38.8715953,17.4004193 38.7455253,17.2746331 Z" id="Shape" fill="url(#linearGradient-8)"></path>
            <path d="M38.7455253,18.1551363 C39.5439689,18.1551363 40.3844358,18.1551363 41.2249027,18.1551363 C41.0988327,18.2809224 41.0988327,18.4486373 41.2249027,18.5744235 C40.3844358,18.5744235 39.5439689,18.5744235 38.7455253,18.5744235 C38.829572,18.4067086 38.829572,18.2809224 38.7455253,18.1551363 Z" id="Shape" fill="url(#linearGradient-7)"></path>
            <path d="M38.7455253,18.9098532 C39.5439689,18.9098532 40.3844358,18.9098532 41.2249027,18.9098532 C41.0988327,18.9937107 41.140856,19.1194969 41.2249027,19.2033543 C40.3844358,19.2033543 39.5439689,19.2033543 38.7455253,19.2033543 C38.7875486,19.1194969 38.829572,18.9937107 38.7455253,18.9098532 Z" id="Shape" fill="url(#linearGradient-9)"></path>
            <path d="M38.7455253,19.4549266 C39.5439689,19.4549266 40.3844358,19.4549266 41.2249027,19.4549266 C41.140856,19.5387841 41.140856,19.6226415 41.2249027,19.6645702 C40.3844358,19.6645702 39.5439689,19.6645702 38.7455253,19.6645702 C38.7875486,19.6226415 38.829572,19.5387841 38.7455253,19.4549266 Z" id="Shape" fill="url(#linearGradient-10)"></path>
            <path d="M38.7455253,19.8322851 C39.5439689,19.8322851 40.3844358,19.8322851 41.2249027,19.8322851 C41.140856,19.8742138 41.1828794,19.9161426 41.2249027,19.9580713 C40.3844358,19.9580713 39.5439689,19.9580713 38.7455253,19.9580713 C38.7455253,19.9161426 38.7875486,19.8742138 38.7455253,19.8322851 Z" id="Shape" fill="url(#linearGradient-3)"></path>
        </g>
    </g>
</svg>