<?xml version="1.0" encoding="UTF-8"?>
<svg width="12px" height="16px" viewBox="0 0 12 16" version="1.1" xmlns="http://www.w3.org/2000/svg" xmlns:xlink="http://www.w3.org/1999/xlink">
    <!-- Generator: Sketch 48.2 (47327) - http://www.bohemiancoding.com/sketch -->
    <title>school icons</title>
    <desc>Created with Sketch.</desc>
    <defs></defs>
    <g id="main" stroke="none" stroke-width="1" fill="none" fill-rule="evenodd" transform="translate(-986.000000, -3937.000000)">
        <g id="school-icons" transform="translate(984.000000, 3937.000000)">
            <rect id="Rectangle-9" opacity="0.200000003" x="0" y="0" width="16" height="16"></rect>
            <path d="M3,0 L13,0 C13.5522847,-1.01453063e-16 14,0.44771525 14,1 L14,15 C14,15.5522847 13.5522847,16 13,16 L3,16 C2.44771525,16 2,15.5522847 2,15 L2,1 C2,0.44771525 2.44771525,1.01453063e-16 3,0 Z M4,2 L4,14 L12,14 L12,2 L4,2 Z M6,4 L10,4 L10,6 L6,6 L6,4 Z M6,8 L8,8 L8,10 L6,10 L6,8 Z" id="Combined-Shape" fill="#FF4242"></path>
        </g>
    </g>
</svg>