<?xml version="1.0" encoding="UTF-8"?>
<svg width="16px" height="13px" viewBox="0 0 16 13" version="1.1" xmlns="http://www.w3.org/2000/svg" xmlns:xlink="http://www.w3.org/1999/xlink">
    <!-- Generator: Sketch 48.2 (47327) - http://www.bohemiancoding.com/sketch -->
    <title>twitter</title>
    <desc>Created with Sketch.</desc>
    <defs></defs>
    <g id="main" stroke="none" stroke-width="1" fill="none" fill-rule="evenodd" transform="translate(-1096.000000, -4617.000000)" opacity="0.600000024">
        <g id="twitter" transform="translate(1092.000000, 4611.000000)">
            <circle id="Oval-7" cx="12" cy="12" r="12"></circle>
            <g id="if_03-twitter_104501" transform="translate(4.000000, 6.000000)" fill="#FFFFFF" fill-rule="nonzero">
                <path d="M15.94784,1.60597561 C15.36832,1.86121951 14.74464,2.03339024 14.09024,2.11043902 C14.7584,1.71409756 15.27072,1.08629268 15.51232,0.337365854 C14.88736,0.704853659 14.19552,0.971512195 13.45856,1.11546341 C12.8688,0.492731707 12.02816,0.103365854 11.09792,0.103365854 C9.312,0.103365854 7.864,1.53812195 7.864,3.30802439 C7.864,3.55882927 7.89248,3.80329268 7.94784,4.0382439 C5.25984,3.90443902 2.87648,2.62885366 1.28128,0.68995122 C1.00288,1.16302439 0.84352,1.71346341 0.84352,2.30131707 C0.84352,3.41297561 1.4144,4.394 2.28224,4.96853659 C1.75232,4.95173171 1.25344,4.80746341 0.81728,4.56743902 C0.81696,4.5807561 0.81696,4.59439024 0.81696,4.60802439 C0.81696,6.16041463 1.93184,7.45534146 3.41152,7.75021951 C3.14016,7.82314634 2.8544,7.86246341 2.55936,7.86246341 C2.35072,7.86246341 2.14816,7.8424878 1.95072,7.8047561 C2.36256,9.07780488 3.5568,10.0046098 4.97184,10.0302927 C3.86496,10.889878 2.47072,11.4022683 0.9552,11.4022683 C0.6944,11.4022683 0.4368,11.3870488 0.18368,11.3572439 C1.61536,12.2669268 3.3152,12.7970732 5.14144,12.7970732 C11.09056,12.7970732 14.34336,7.91414634 14.34336,3.67931707 C14.34336,3.54043902 14.34048,3.40187805 14.3344,3.26426829 C14.96608,2.81339024 15.51456,2.24868293 15.94784,1.60597561 Z" id="Shape"></path>
            </g>
        </g>
    </g>
</svg>