<?xml version="1.0" encoding="UTF-8"?>
<svg width="18px" height="10px" viewBox="0 0 18 10" version="1.1" xmlns="http://www.w3.org/2000/svg" xmlns:xlink="http://www.w3.org/1999/xlink">
    <!-- Generator: Sketch 48.2 (47327) - http://www.bohemiancoding.com/sketch -->
    <title>vk</title>
    <desc>Created with Sketch.</desc>
    <defs></defs>
    <g id="main" stroke="none" stroke-width="1" fill="none" fill-rule="evenodd" transform="translate(-1023.000000, -4618.000000)" opacity="0.600000024">
        <g id="vk" transform="translate(1020.000000, 4611.000000)">
            <circle id="Oval-7" cx="12" cy="12" r="12"></circle>
            <path d="M20.5870118,7.67710526 C20.7120566,7.28684211 20.5870118,7 19.9914666,7 L18.0222569,7 C17.521515,7 17.2906955,7.24776316 17.16551,7.52092105 C17.16551,7.52092105 16.1641668,9.80434211 14.7454919,11.2875 C14.2865254,11.7168421 14.0779298,11.8534211 13.8275589,11.8534211 C13.7023734,11.8534211 13.5212061,11.7168421 13.5212061,11.3265789 L13.5212061,7.67710526 C13.5212061,7.20868421 13.3759066,7 12.9585748,7 L9.86410238,7 C9.5511387,7 9.36293851,7.21736842 9.36293851,7.42342105 C9.36293851,7.86736842 10.072276,7.96986842 10.1454181,9.21881579 L10.1454181,11.9315789 C10.1454181,12.5263158 10.0306413,12.6342105 9.78027031,12.6342105 C9.11270822,12.6342105 7.48881351,10.3405263 6.52572931,7.71618421 C6.33696649,7.20605263 6.14764105,7 5.64436731,7 L3.67515761,7 C3.11252627,7 3,7.24776316 3,7.52092105 C3,8.00881579 3.66756209,10.4288158 6.10839751,13.6294737 C7.73566801,15.8151316 10.0283907,17 12.1146278,17 C13.3663418,17 13.5212061,16.7368421 13.5212061,16.2835526 L13.5212061,14.6315789 C13.5212061,14.1052632 13.6397807,14.0002632 14.0361544,14.0002632 C14.3281601,14.0002632 14.828902,14.1368421 15.997206,15.1906579 C17.3324708,16.4397368 17.5526003,17 18.3035725,17 L20.2727822,17 C20.8354136,17 21.1167292,16.7368421 20.9544101,16.2175 C20.7768999,15.6998684 20.1392979,14.9489474 19.2935224,14.0588158 C18.8345559,13.5513158 18.1460358,13.005 17.9374402,12.7317105 C17.6452939,12.3803947 17.7288446,12.2242105 17.9374402,11.9119737 C17.9374402,11.9119737 20.3366409,8.75052632 20.5870118,7.67710526" id="Fill-7" fill="#FFFFFE"></path>
        </g>
    </g>
</svg>