<?xml version="1.0" encoding="UTF-8"?>
<svg width="16px" height="12px" viewBox="0 0 16 12" version="1.1" xmlns="http://www.w3.org/2000/svg" xmlns:xlink="http://www.w3.org/1999/xlink">
    <!-- Generator: Sketch 48.2 (47327) - http://www.bohemiancoding.com/sketch -->
    <title>youtube</title>
    <desc>Created with Sketch.</desc>
    <defs></defs>
    <g id="main" stroke="none" stroke-width="1" fill="none" fill-rule="evenodd" transform="translate(-1060.000000, -4617.000000)" opacity="0.600000024">
        <g id="youtube" transform="translate(1056.000000, 4611.000000)">
            <circle id="Oval-7" cx="12" cy="12" r="12"></circle>
            <path d="M19.84,8.5884455 C19.84,8.5884455 19.6835,7.41274568 19.204,6.89510952 C18.5955,6.21533982 17.9135,6.21216332 17.601,6.17272186 C15.362,6 12.0035,6 12.0035,6 L11.9965,6 C11.9965,6 8.638,6 6.399,6.17272186 C6.086,6.21216332 5.4045,6.21533982 4.7955,6.89510952 C4.316,7.41287804 4.16,8.5884455 4.16,8.5884455 C4.16,8.5884455 4,9.96942625 4,11.3497452 L4,12.6442989 C4,14.0251472 4.16,15.4055986 4.16,15.4055986 C4.16,15.4055986 4.316,16.5812984 4.7955,17.0989346 C5.4045,17.7787043 6.204,17.7573953 6.56,17.828337 C7.84,17.9594997 12,18 12,18 C12,18 15.362,17.9947058 17.601,17.821984 C17.9135,17.7820131 18.5955,17.7788366 19.204,17.0990669 C19.6835,16.5812984 19.84,15.4057309 19.84,15.4057309 C19.84,15.4057309 20,14.0252796 20,12.6442989 L20,11.3497452 C20,9.96942625 19.84,8.5884455 19.84,8.5884455 Z M10.348,14.2129574 L10.3475,9.41923102 L14.6705,11.8243664 L10.348,14.2129574 Z" id="Youtube" fill="#FFFFFF"></path>
        </g>
    </g>
</svg>